<?xml version="1.0" encoding="UTF-8"?>
<!DOCTYPE svg PUBLIC "-//W3C//DTD SVG 1.1//EN" "http://www.w3.org/Graphics/SVG/1.1/DTD/svg11.dtd">
<svg xmlns="http://www.w3.org/2000/svg" version="1.1" width="389px" height="340px" style="shape-rendering:geometricPrecision; text-rendering:geometricPrecision; image-rendering:optimizeQuality; fill-rule:evenodd; clip-rule:evenodd" xmlns:xlink="http://www.w3.org/1999/xlink">
<g><path style="opacity:1" fill="#f4f4f4" d="M -0.5,-0.5 C 129.167,-0.5 258.833,-0.5 388.5,-0.5C 388.5,112.833 388.5,226.167 388.5,339.5C 340.167,339.5 291.833,339.5 243.5,339.5C 242.946,336.254 241.946,333.254 240.5,330.5C 239.539,328.735 239.205,326.735 239.5,324.5C 239.5,323.167 239.5,321.833 239.5,320.5C 246.022,320.823 252.355,320.49 258.5,319.5C 258.5,319.167 258.5,318.833 258.5,318.5C 259.492,318.672 260.158,318.338 260.5,317.5C 261.822,317.67 262.989,317.337 264,316.5C 265,314.5 266,312.5 267,310.5C 267.821,303.654 267.654,296.987 266.5,290.5C 266.5,290.167 266.5,289.833 266.5,289.5C 265.322,279.202 263.322,269.202 260.5,259.5C 258.729,252.332 256.729,245.332 254.5,238.5C 253.941,233.178 252.608,228.178 250.5,223.5C 250.5,223.167 250.5,222.833 250.5,222.5C 247.732,216.064 243.066,211.73 236.5,209.5C 233.449,207.648 230.116,206.314 226.5,205.5C 222.889,203.683 219.222,202.016 215.5,200.5C 215.322,199.305 214.989,198.138 214.5,197C 217.133,191.23 219.466,185.397 221.5,179.5C 221.5,178.5 221.5,177.5 221.5,176.5C 225.095,172.21 226.595,167.21 226,161.5C 225.329,160.748 224.496,160.414 223.5,160.5C 223.888,153.253 223.221,146.253 221.5,139.5C 218.054,132.259 212.388,127.593 204.5,125.5C 198.956,124.043 193.623,124.709 188.5,127.5C 181.067,130.266 177.067,135.599 176.5,143.5C 175.6,149 175.6,154.667 176.5,160.5C 175.504,160.414 174.671,160.748 174,161.5C 173.5,163 173,164.5 172.5,166C 172.57,166.765 172.903,167.265 173.5,167.5C 173.5,167.833 173.5,168.167 173.5,168.5C 173.897,172.737 176.064,175.737 180,177.5C 180.498,180.817 180.665,184.15 180.5,187.5C 177.615,187.194 174.948,187.527 172.5,188.5C 169.973,192.679 166.64,196.179 162.5,199C 154.506,200.331 146.506,201.665 138.5,203C 136.416,203.697 134.749,204.864 133.5,206.5C 132.5,207.167 131.5,207.833 130.5,208.5C 128.012,211.466 126.012,214.799 124.5,218.5C 123.778,218.918 123.278,219.584 123,220.5C 122.5,231.161 122.333,241.828 122.5,252.5C 122.5,252.833 122.5,253.167 122.5,253.5C 121.167,264.5 121.167,275.5 122.5,286.5C 122.198,289.059 122.532,291.393 123.5,293.5C 123.671,298.196 124.171,302.863 125,307.5C 125.383,308.056 125.883,308.389 126.5,308.5C 126.5,309.5 126.5,310.5 126.5,311.5C 126.402,313.553 127.069,315.22 128.5,316.5C 128.992,318.819 129.992,320.819 131.5,322.5C 131.5,323.167 131.5,323.833 131.5,324.5C 131.167,327.167 130.833,329.833 130.5,332.5C 130.5,334.833 130.5,337.167 130.5,339.5C 86.8333,339.5 43.1667,339.5 -0.5,339.5C -0.5,226.167 -0.5,112.833 -0.5,-0.5 Z"/></g>
<g><path style="opacity:1" fill="#3b4151" d="M 204.5,125.5 C 201.098,125.342 197.764,125.676 194.5,126.5C 192.565,127.15 190.565,127.483 188.5,127.5C 193.623,124.709 198.956,124.043 204.5,125.5 Z"/></g>
<g><path style="opacity:1" fill="#17212d" d="M 194.5,126.5 C 193.305,129.71 191.305,130.376 188.5,128.5C 188.323,130.981 189.323,132.814 191.5,134C 187.774,135.043 188.107,135.543 192.5,135.5C 187.123,135.538 183.79,138.205 182.5,143.5C 181.833,143.5 181.5,143.833 181.5,144.5C 178.516,145.784 177.016,148.118 177,151.5C 176.503,148.854 176.336,146.187 176.5,143.5C 177.067,135.599 181.067,130.266 188.5,127.5C 190.565,127.483 192.565,127.15 194.5,126.5 Z"/></g>
<g><path style="opacity:1" fill="#0d1728" d="M 204.5,125.5 C 212.388,127.593 218.054,132.259 221.5,139.5C 221.663,141.857 221.497,144.19 221,146.5C 220.777,144.119 219.61,142.453 217.5,141.5C 216.797,139.284 215.464,137.451 213.5,136C 206.508,135.5 199.508,135.334 192.5,135.5C 188.107,135.543 187.774,135.043 191.5,134C 189.323,132.814 188.323,130.981 188.5,128.5C 191.305,130.376 193.305,129.71 194.5,126.5C 197.764,125.676 201.098,125.342 204.5,125.5 Z"/></g>
<g><path style="opacity:1" fill="#64453b" d="M 192.5,135.5 C 199.508,135.334 206.508,135.5 213.5,136C 215.464,137.451 216.797,139.284 217.5,141.5C 219.092,145.248 219.925,149.248 220,153.5C 221.276,155.858 222.442,158.192 223.5,160.5C 223.85,165.991 223.184,171.324 221.5,176.5C 221.5,177.5 221.5,178.5 221.5,179.5C 219.797,180.66 219.131,179.993 219.5,177.5C 219.784,175.585 219.451,173.919 218.5,172.5C 218.083,169.921 218.75,167.754 220.5,166C 218.975,164.991 217.308,164.491 215.5,164.5C 214.737,163.732 213.737,163.232 212.5,163C 216.5,162.333 216.5,161.667 212.5,161C 212.833,160.667 213.167,160.333 213.5,160C 211.527,159.505 209.527,159.338 207.5,159.5C 208.134,158.053 209.301,157.387 211,157.5C 213.462,158.159 215.962,158.493 218.5,158.5C 218.378,155.708 217.044,153.708 214.5,152.5C 213.524,151.185 212.524,149.852 211.5,148.5C 213.04,147.468 213.54,146.135 213,144.5C 208.893,142.137 204.726,139.971 200.5,138C 196.167,137.333 191.833,137.333 187.5,138C 185.536,139.451 184.203,141.284 183.5,143.5C 183.167,143.5 182.833,143.5 182.5,143.5C 183.79,138.205 187.123,135.538 192.5,135.5 Z"/></g>
<g><path style="opacity:1" fill="#986351" d="M 214.5,152.5 C 209.858,152.028 206.858,149.528 205.5,145C 201.176,143.312 196.842,143.146 192.5,144.5C 190.5,144.5 188.5,144.5 186.5,144.5C 186.169,146.322 185.502,147.989 184.5,149.5C 183.539,147.735 183.205,145.735 183.5,143.5C 184.203,141.284 185.536,139.451 187.5,138C 191.833,137.333 196.167,137.333 200.5,138C 204.726,139.971 208.893,142.137 213,144.5C 213.54,146.135 213.04,147.468 211.5,148.5C 212.524,149.852 213.524,151.185 214.5,152.5 Z"/></g>
<g><path style="opacity:1" fill="#ac7460" d="M 192.5,144.5 C 192.389,145.117 192.056,145.617 191.5,146C 195.484,148.098 195.151,149.765 190.5,151C 189.748,151.671 189.414,152.504 189.5,153.5C 187.868,154.446 186.201,155.446 184.5,156.5C 183.893,156.376 183.56,156.043 183.5,155.5C 182.068,153.201 182.734,151.535 185.5,150.5C 185.376,149.893 185.043,149.56 184.5,149.5C 185.502,147.989 186.169,146.322 186.5,144.5C 188.5,144.5 190.5,144.5 192.5,144.5 Z"/></g>
<g><path style="opacity:1" fill="#6a5855" d="M 176.5,143.5 C 176.336,146.187 176.503,148.854 177,151.5C 177.016,148.118 178.516,145.784 181.5,144.5C 180.196,152.073 179.196,159.073 178.5,165.5C 177.833,163.833 177.167,162.167 176.5,160.5C 175.6,154.667 175.6,149 176.5,143.5 Z"/></g>
<g><path style="opacity:1" fill="#c78769" d="M 214.5,152.5 C 214.089,154.772 212.922,155.105 211,153.5C 209.7,155.459 207.867,156.626 205.5,157C 204.55,159.91 202.55,161.077 199.5,160.5C 199.5,159.5 199.5,158.5 199.5,157.5C 201.666,160.04 202.666,159.373 202.5,155.5C 204.288,155.785 205.955,155.452 207.5,154.5C 201.572,151.102 195.572,150.768 189.5,153.5C 189.414,152.504 189.748,151.671 190.5,151C 195.151,149.765 195.484,148.098 191.5,146C 192.056,145.617 192.389,145.117 192.5,144.5C 196.842,143.146 201.176,143.312 205.5,145C 206.858,149.528 209.858,152.028 214.5,152.5 Z"/></g>
<g><path style="opacity:1" fill="#493c3e" d="M 221.5,139.5 C 223.221,146.253 223.888,153.253 223.5,160.5C 222.442,158.192 221.276,155.858 220,153.5C 219.925,149.248 219.092,145.248 217.5,141.5C 219.61,142.453 220.777,144.119 221,146.5C 221.497,144.19 221.663,141.857 221.5,139.5 Z"/></g>
<g><path style="opacity:1" fill="#eba889" d="M 199.5,157.5 C 198.833,157.5 198.5,157.167 198.5,156.5C 195.647,155.046 192.647,154.046 189.5,153.5C 195.572,150.768 201.572,151.102 207.5,154.5C 205.955,155.452 204.288,155.785 202.5,155.5C 202.666,159.373 201.666,160.04 199.5,157.5 Z"/></g>
<g><path style="opacity:1" fill="#be9689" d="M 176.5,160.5 C 177.167,162.167 177.833,163.833 178.5,165.5C 177.279,164.972 176.113,164.305 175,163.5C 174.209,164.745 173.709,166.078 173.5,167.5C 172.903,167.265 172.57,166.765 172.5,166C 173,164.5 173.5,163 174,161.5C 174.671,160.748 175.504,160.414 176.5,160.5 Z"/></g>
<g><path style="opacity:1" fill="#856d65" d="M 207.5,159.5 C 209.527,159.338 211.527,159.505 213.5,160C 213.167,160.333 212.833,160.667 212.5,161C 216.5,161.667 216.5,162.333 212.5,163C 213.737,163.232 214.737,163.732 215.5,164.5C 213.901,164.232 212.568,164.566 211.5,165.5C 210.504,165.414 209.671,165.748 209,166.5C 207.632,165.007 207.465,163.507 208.5,162C 207.584,161.722 206.918,161.222 206.5,160.5C 207.167,160.5 207.5,160.167 207.5,159.5 Z"/></g>
<g><path style="opacity:1" fill="#996451" d="M 214.5,152.5 C 217.044,153.708 218.378,155.708 218.5,158.5C 215.962,158.493 213.462,158.159 211,157.5C 209.301,157.387 208.134,158.053 207.5,159.5C 207.5,160.167 207.167,160.5 206.5,160.5C 204.744,161.552 204.077,163.219 204.5,165.5C 201.5,165.167 200.167,166.5 200.5,169.5C 199.517,170.85 198.184,171.85 196.5,172.5C 197.729,173.281 199.062,173.781 200.5,174C 197.613,174.723 194.947,174.223 192.5,172.5C 192.977,171.522 193.643,170.689 194.5,170C 191.739,169.855 189.073,170.355 186.5,171.5C 186.5,170.167 186.5,168.833 186.5,167.5C 190.059,167.592 193.392,166.759 196.5,165C 195.833,164.667 195.167,164.333 194.5,164C 195.711,163.107 195.711,162.274 194.5,161.5C 192.477,163.173 190.144,163.84 187.5,163.5C 187.286,161.856 187.62,160.356 188.5,159C 191.666,157.443 195,156.61 198.5,156.5C 198.5,157.167 198.833,157.5 199.5,157.5C 199.5,158.5 199.5,159.5 199.5,160.5C 202.55,161.077 204.55,159.91 205.5,157C 207.867,156.626 209.7,155.459 211,153.5C 212.922,155.105 214.089,154.772 214.5,152.5 Z"/></g>
<g><path style="opacity:1" fill="#a17969" d="M 182.5,143.5 C 182.833,143.5 183.167,143.5 183.5,143.5C 183.205,145.735 183.539,147.735 184.5,149.5C 185.043,149.56 185.376,149.893 185.5,150.5C 182.734,151.535 182.068,153.201 183.5,155.5C 183.032,161.231 183.032,167.231 183.5,173.5C 180.991,172.887 178.491,172.22 176,171.5C 175.695,169.443 175.695,167.443 176,165.5C 175.148,166.571 174.315,167.571 173.5,168.5C 173.5,168.167 173.5,167.833 173.5,167.5C 173.709,166.078 174.209,164.745 175,163.5C 176.113,164.305 177.279,164.972 178.5,165.5C 179.196,159.073 180.196,152.073 181.5,144.5C 181.5,143.833 181.833,143.5 182.5,143.5 Z"/></g>
<g><path style="opacity:1" fill="#6c3e2c" d="M 206.5,160.5 C 206.918,161.222 207.584,161.722 208.5,162C 207.465,163.507 207.632,165.007 209,166.5C 209.671,165.748 210.504,165.414 211.5,165.5C 218.487,167.871 218.154,168.871 210.5,168.5C 210.737,169.791 210.404,170.791 209.5,171.5C 207.11,170.109 205.443,168.109 204.5,165.5C 204.077,163.219 204.744,161.552 206.5,160.5 Z"/></g>
<g><path style="opacity:1" fill="#886b68" d="M 223.5,160.5 C 224.496,160.414 225.329,160.748 226,161.5C 226.595,167.21 225.095,172.21 221.5,176.5C 223.184,171.324 223.85,165.991 223.5,160.5 Z"/></g>
<g><path style="opacity:1" fill="#b6755d" d="M 204.5,165.5 C 205.443,168.109 207.11,170.109 209.5,171.5C 207.85,173.017 206.517,174.85 205.5,177C 206.056,178.011 206.722,178.844 207.5,179.5C 203.575,179.57 199.909,178.903 196.5,177.5C 199.451,176.306 202.451,175.306 205.5,174.5C 205.456,171.684 204.456,169.351 202.5,167.5C 201.818,168.243 201.151,168.909 200.5,169.5C 200.167,166.5 201.5,165.167 204.5,165.5 Z"/></g>
<g><path style="opacity:1" fill="#db9c85" d="M 196.5,177.5 C 195.142,178.626 193.808,178.626 192.5,177.5C 193.325,173.849 192.659,173.682 190.5,177C 188.866,177.494 187.199,177.66 185.5,177.5C 185.325,175.379 185.659,173.379 186.5,171.5C 189.073,170.355 191.739,169.855 194.5,170C 193.643,170.689 192.977,171.522 192.5,172.5C 194.947,174.223 197.613,174.723 200.5,174C 199.062,173.781 197.729,173.281 196.5,172.5C 198.184,171.85 199.517,170.85 200.5,169.5C 201.151,168.909 201.818,168.243 202.5,167.5C 204.456,169.351 205.456,171.684 205.5,174.5C 202.451,175.306 199.451,176.306 196.5,177.5 Z"/></g>
<g><path style="opacity:1" fill="#a57c74" d="M 183.5,173.5 C 184.393,175.903 185.06,178.403 185.5,181C 185.613,182.699 184.947,183.866 183.5,184.5C 181.991,183.141 181.324,183.641 181.5,186C 182.418,191.079 185.085,194.913 189.5,197.5C 189.5,197.833 189.5,198.167 189.5,198.5C 187.442,197.067 185.108,196.4 182.5,196.5C 182.5,198.833 182.5,201.167 182.5,203.5C 181.833,203.5 181.167,203.5 180.5,203.5C 180.5,198.167 180.5,192.833 180.5,187.5C 180.665,184.15 180.498,180.817 180,177.5C 176.064,175.737 173.897,172.737 173.5,168.5C 174.315,167.571 175.148,166.571 176,165.5C 175.695,167.443 175.695,169.443 176,171.5C 178.491,172.22 180.991,172.887 183.5,173.5 Z"/></g>
<g><path style="opacity:1" fill="#8c5a4b" d="M 215.5,164.5 C 217.308,164.491 218.975,164.991 220.5,166C 218.75,167.754 218.083,169.921 218.5,172.5C 216.858,170.919 214.858,170.253 212.5,170.5C 212.264,172.973 210.931,174.64 208.5,175.5C 209.655,176.95 211.155,177.95 213,178.5C 213.494,180.134 213.66,181.801 213.5,183.5C 211.833,183.5 210.167,183.5 208.5,183.5C 204.5,182.167 200.5,182.167 196.5,183.5C 195.417,183.539 194.417,183.873 193.5,184.5C 192.167,182.833 192.167,181.167 193.5,179.5C 195.364,180.993 197.53,181.66 200,181.5C 203.523,181.163 207.023,180.663 210.5,180C 209.552,179.517 208.552,179.351 207.5,179.5C 206.722,178.844 206.056,178.011 205.5,177C 206.517,174.85 207.85,173.017 209.5,171.5C 210.404,170.791 210.737,169.791 210.5,168.5C 218.154,168.871 218.487,167.871 211.5,165.5C 212.568,164.566 213.901,164.232 215.5,164.5 Z"/></g>
<g><path style="opacity:1" fill="#a5725e" d="M 218.5,172.5 C 219.451,173.919 219.784,175.585 219.5,177.5C 217.896,182.041 215.73,186.374 213,190.5C 211.853,192.819 210.019,194.152 207.5,194.5C 204.083,194.977 201.416,193.977 199.5,191.5C 202.786,190.793 206.119,190.46 209.5,190.5C 209.007,188.194 208.674,185.861 208.5,183.5C 210.167,183.5 211.833,183.5 213.5,183.5C 213.66,181.801 213.494,180.134 213,178.5C 211.155,177.95 209.655,176.95 208.5,175.5C 210.931,174.64 212.264,172.973 212.5,170.5C 214.858,170.253 216.858,170.919 218.5,172.5 Z"/></g>
<g><path style="opacity:1" fill="#74554f" d="M 219.5,177.5 C 219.131,179.993 219.797,180.66 221.5,179.5C 219.466,185.397 217.133,191.23 214.5,197C 214.989,198.138 215.322,199.305 215.5,200.5C 214.094,200.027 213.427,199.027 213.5,197.5C 213.44,196.957 213.107,196.624 212.5,196.5C 211.15,197.95 209.484,198.617 207.5,198.5C 208.405,197.036 208.405,195.702 207.5,194.5C 210.019,194.152 211.853,192.819 213,190.5C 215.73,186.374 217.896,182.041 219.5,177.5 Z"/></g>
<g><path style="opacity:1" fill="#bd8d7b" d="M 189.5,153.5 C 192.647,154.046 195.647,155.046 198.5,156.5C 195,156.61 191.666,157.443 188.5,159C 187.62,160.356 187.286,161.856 187.5,163.5C 190.144,163.84 192.477,163.173 194.5,161.5C 195.711,162.274 195.711,163.107 194.5,164C 195.167,164.333 195.833,164.667 196.5,165C 193.392,166.759 190.059,167.592 186.5,167.5C 186.5,168.833 186.5,170.167 186.5,171.5C 185.659,173.379 185.325,175.379 185.5,177.5C 187.199,177.66 188.866,177.494 190.5,177C 192.659,173.682 193.325,173.849 192.5,177.5C 193.808,178.626 195.142,178.626 196.5,177.5C 199.909,178.903 203.575,179.57 207.5,179.5C 208.552,179.351 209.552,179.517 210.5,180C 207.023,180.663 203.523,181.163 200,181.5C 197.53,181.66 195.364,180.993 193.5,179.5C 192.167,181.167 192.167,182.833 193.5,184.5C 194.417,183.873 195.417,183.539 196.5,183.5C 196.551,185.57 195.885,187.403 194.5,189C 195.619,190.876 197.286,191.709 199.5,191.5C 201.416,193.977 204.083,194.977 207.5,194.5C 208.405,195.702 208.405,197.036 207.5,198.5C 207.167,198.5 206.833,198.5 206.5,198.5C 201.728,199.037 197.395,198.037 193.5,195.5C 193.489,193.983 192.823,192.816 191.5,192C 186.98,191.447 184.313,188.947 183.5,184.5C 184.947,183.866 185.613,182.699 185.5,181C 185.06,178.403 184.393,175.903 183.5,173.5C 183.032,167.231 183.032,161.231 183.5,155.5C 183.56,156.043 183.893,156.376 184.5,156.5C 186.201,155.446 187.868,154.446 189.5,153.5 Z"/></g>
<g><path style="opacity:1" fill="#e7a389" d="M 208.5,183.5 C 208.674,185.861 209.007,188.194 209.5,190.5C 206.119,190.46 202.786,190.793 199.5,191.5C 197.286,191.709 195.619,190.876 194.5,189C 195.885,187.403 196.551,185.57 196.5,183.5C 200.5,182.167 204.5,182.167 208.5,183.5 Z"/></g>
<g><path style="opacity:1" fill="#754e42" d="M 183.5,184.5 C 184.313,188.947 186.98,191.447 191.5,192C 192.823,192.816 193.489,193.983 193.5,195.5C 191.934,194.939 190.601,195.606 189.5,197.5C 185.085,194.913 182.418,191.079 181.5,186C 181.324,183.641 181.991,183.141 183.5,184.5 Z"/></g>
<g><path style="opacity:1" fill="#131023" d="M 172.5,188.5 C 174.833,188.5 177.167,188.5 179.5,188.5C 179.5,190.167 179.5,191.833 179.5,193.5C 178.883,193.611 178.383,193.944 178,194.5C 177.856,198.043 177.689,201.376 177.5,204.5C 177.144,202.81 176.144,201.81 174.5,201.5C 173.9,198.702 172.9,196.035 171.5,193.5C 172.309,191.929 172.643,190.262 172.5,188.5 Z"/></g>
<g><path style="opacity:1" fill="#705859" d="M 172.5,188.5 C 174.948,187.527 177.615,187.194 180.5,187.5C 180.5,192.833 180.5,198.167 180.5,203.5C 179.521,200.375 179.187,197.042 179.5,193.5C 179.5,191.833 179.5,190.167 179.5,188.5C 177.167,188.5 174.833,188.5 172.5,188.5 Z"/></g>
<g><path style="opacity:1" fill="#563b33" d="M 193.5,195.5 C 197.395,198.037 201.728,199.037 206.5,198.5C 206.03,199.693 205.03,200.36 203.5,200.5C 200.869,200.218 198.369,199.551 196,198.5C 194.205,199.719 194.372,200.719 196.5,201.5C 193.978,200.989 191.645,199.989 189.5,198.5C 189.5,198.167 189.5,197.833 189.5,197.5C 190.601,195.606 191.934,194.939 193.5,195.5 Z"/></g>
<g><path style="opacity:1" fill="#3b2928" d="M 213.5,197.5 C 212.711,197.783 212.044,198.283 211.5,199C 212.38,200.356 212.714,201.856 212.5,203.5C 211.833,204.167 211.167,204.833 210.5,205.5C 210.5,204.5 210.5,203.5 210.5,202.5C 208.5,202.5 206.5,202.5 204.5,202.5C 201.615,202.806 198.948,202.473 196.5,201.5C 194.372,200.719 194.205,199.719 196,198.5C 198.369,199.551 200.869,200.218 203.5,200.5C 205.03,200.36 206.03,199.693 206.5,198.5C 206.833,198.5 207.167,198.5 207.5,198.5C 209.484,198.617 211.15,197.95 212.5,196.5C 213.107,196.624 213.44,196.957 213.5,197.5 Z"/></g>
<g><path style="opacity:1" fill="#29304d" d="M 164.5,200.5 C 163.747,202.559 164.414,204.393 166.5,206C 165.452,210.266 165.785,214.433 167.5,218.5C 167.672,219.492 167.338,220.158 166.5,220.5C 165.406,218.641 164.573,216.641 164,214.5C 163.667,214.833 163.333,215.167 163,215.5C 161.333,213.167 159.667,210.833 158,208.5C 159.463,213.343 160.796,218.343 162,223.5C 162.232,222.263 162.732,221.263 163.5,220.5C 162.865,223.493 162.699,226.493 163,229.5C 163.333,228.5 163.667,227.5 164,226.5C 164.29,228.92 164.79,231.254 165.5,233.5C 165.279,236.097 164.779,236.097 164,233.5C 162.301,234.406 160.467,234.739 158.5,234.5C 157.5,234.5 156.5,234.5 155.5,234.5C 155.481,232.94 155.148,231.44 154.5,230C 154.892,228.989 155.559,228.489 156.5,228.5C 153.251,220.331 149.251,212.664 144.5,205.5C 145.632,204.646 146.965,204.646 148.5,205.5C 149.698,209.572 151.198,213.572 153,217.5C 153.667,218.833 154.333,218.833 155,217.5C 157.735,222.444 158.901,227.777 158.5,233.5C 159.5,233.5 160.5,233.5 161.5,233.5C 160.719,228.484 159.719,223.484 158.5,218.5C 155.462,214.373 152.795,210.04 150.5,205.5C 150.435,205.062 150.601,204.728 151,204.5C 152.791,206.513 154.125,206.513 155,204.5C 157.746,205.65 160.579,206.15 163.5,206C 161.377,204.806 159.043,204.14 156.5,204C 155.663,202.989 155.33,201.822 155.5,200.5C 158.81,200.339 161.81,200.339 164.5,200.5 Z"/></g>
<g><path style="opacity:1" fill="#b8806e" d="M 189.5,198.5 C 191.645,199.989 193.978,200.989 196.5,201.5C 198.948,202.473 201.615,202.806 204.5,202.5C 203.871,204.997 202.204,206.33 199.5,206.5C 195.402,205.249 191.402,205.583 187.5,207.5C 186.5,206.833 185.5,206.167 184.5,205.5C 183.5,205.167 182.833,204.5 182.5,203.5C 182.5,201.167 182.5,198.833 182.5,196.5C 185.108,196.4 187.442,197.067 189.5,198.5 Z"/></g>
<g><path style="opacity:1" fill="#575273" d="M 172.5,188.5 C 172.643,190.262 172.309,191.929 171.5,193.5C 172.9,196.035 173.9,198.702 174.5,201.5C 174.631,202.239 174.464,202.906 174,203.5C 173.667,202.5 173.333,201.5 173,200.5C 172.294,202.971 172.627,205.305 174,207.5C 174.333,206.5 174.667,205.5 175,204.5C 176.184,207.942 177.35,211.275 178.5,214.5C 178.158,215.338 177.492,215.672 176.5,215.5C 176.543,211.107 176.043,210.774 175,214.5C 174.604,212.04 173.437,210.04 171.5,208.5C 171.92,206.674 171.92,204.674 171.5,202.5C 169.007,202.671 167.174,201.671 166,199.5C 165.617,200.056 165.117,200.389 164.5,200.5C 161.81,200.339 158.81,200.339 155.5,200.5C 155.33,201.822 155.663,202.989 156.5,204C 159.043,204.14 161.377,204.806 163.5,206C 160.579,206.15 157.746,205.65 155,204.5C 154.125,206.513 152.791,206.513 151,204.5C 150.601,204.728 150.435,205.062 150.5,205.5C 149.833,205.5 149.167,205.5 148.5,205.5C 146.965,204.646 145.632,204.646 144.5,205.5C 143.833,205.5 143.167,205.5 142.5,205.5C 139.114,204.173 137.78,205.173 138.5,208.5C 136.83,208.751 135.33,209.418 134,210.5C 134.331,208.981 134.164,207.648 133.5,206.5C 134.749,204.864 136.416,203.697 138.5,203C 146.506,201.665 154.506,200.331 162.5,199C 166.64,196.179 169.973,192.679 172.5,188.5 Z"/></g>
<g><path style="opacity:1" fill="#74514b" d="M 180.5,203.5 C 181.167,203.5 181.833,203.5 182.5,203.5C 182.833,204.5 183.5,205.167 184.5,205.5C 186.506,209.491 189.173,212.824 192.5,215.5C 190.901,215.768 189.568,215.434 188.5,214.5C 185.09,211.335 182.423,207.668 180.5,203.5 Z"/></g>
<g><path style="opacity:1" fill="#302631" d="M 179.5,193.5 C 179.187,197.042 179.521,200.375 180.5,203.5C 182.423,207.668 185.09,211.335 188.5,214.5C 187.07,214.579 185.736,214.246 184.5,213.5C 181.755,210.763 179.422,207.763 177.5,204.5C 177.689,201.376 177.856,198.043 178,194.5C 178.383,193.944 178.883,193.611 179.5,193.5 Z"/></g>
<g><path style="opacity:1" fill="#15131d" d="M 212.5,203.5 C 212.025,209.962 209.359,215.296 204.5,219.5C 205.011,216.978 206.011,214.645 207.5,212.5C 208.736,210.351 209.736,208.018 210.5,205.5C 211.167,204.833 211.833,204.167 212.5,203.5 Z"/></g>
<g><path style="opacity:1" fill="#152e57" d="M 142.5,205.5 C 144.738,208.299 146.738,211.299 148.5,214.5C 147.277,215.614 145.944,215.781 144.5,215C 143.002,212.336 141.002,210.17 138.5,208.5C 137.78,205.173 139.114,204.173 142.5,205.5 Z"/></g>
<g><path style="opacity:1" fill="#354666" d="M 176.5,215.5 C 173.655,217.023 170.655,218.023 167.5,218.5C 165.785,214.433 165.452,210.266 166.5,206C 164.414,204.393 163.747,202.559 164.5,200.5C 165.117,200.389 165.617,200.056 166,199.5C 167.174,201.671 169.007,202.671 171.5,202.5C 171.92,204.674 171.92,206.674 171.5,208.5C 173.437,210.04 174.604,212.04 175,214.5C 176.043,210.774 176.543,211.107 176.5,215.5 Z"/></g>
<g><path style="opacity:1" fill="#38476c" d="M 142.5,205.5 C 143.167,205.5 143.833,205.5 144.5,205.5C 149.251,212.664 153.251,220.331 156.5,228.5C 155.559,228.489 154.892,228.989 154.5,230C 155.148,231.44 155.481,232.94 155.5,234.5C 156.5,234.5 157.5,234.5 158.5,234.5C 158.5,234.833 158.5,235.167 158.5,235.5C 156.952,235.821 156.285,236.821 156.5,238.5C 156.19,239.738 155.69,239.738 155,238.5C 154.667,237.167 154.333,235.833 154,234.5C 153.536,235.094 153.369,235.761 153.5,236.5C 152.778,236.918 152.278,237.584 152,238.5C 151.667,236.833 151.333,235.167 151,233.5C 150.749,235.433 150.249,237.266 149.5,239C 150.109,240.948 150.776,242.782 151.5,244.5C 151.721,247.097 152.221,247.097 153,244.5C 153.494,246.134 153.66,247.801 153.5,249.5C 154.5,249.5 155.5,249.5 156.5,249.5C 156.762,250.978 156.429,252.311 155.5,253.5C 153.549,251.378 151.215,249.878 148.5,249C 146.925,246.644 145.259,244.478 143.5,242.5C 144.043,242.44 144.376,242.107 144.5,241.5C 140.523,236.847 137.857,231.514 136.5,225.5C 137.873,225.657 139.207,225.49 140.5,225C 138.009,224.374 138.009,223.541 140.5,222.5C 137.214,221.245 133.88,220.245 130.5,219.5C 129.665,216.006 129.665,212.34 130.5,208.5C 131.5,207.833 132.5,207.167 133.5,206.5C 134.164,207.648 134.331,208.981 134,210.5C 135.33,209.418 136.83,208.751 138.5,208.5C 141.002,210.17 143.002,212.336 144.5,215C 145.944,215.781 147.277,215.614 148.5,214.5C 146.738,211.299 144.738,208.299 142.5,205.5 Z"/></g>
<g><path style="opacity:1" fill="#5b698a" d="M 130.5,208.5 C 129.665,212.34 129.665,216.006 130.5,219.5C 128.735,220.461 126.735,220.795 124.5,220.5C 124.5,219.833 124.5,219.167 124.5,218.5C 126.012,214.799 128.012,211.466 130.5,208.5 Z"/></g>
<g><path style="opacity:1" fill="#374b66" d="M 148.5,205.5 C 149.167,205.5 149.833,205.5 150.5,205.5C 152.795,210.04 155.462,214.373 158.5,218.5C 159.719,223.484 160.719,228.484 161.5,233.5C 160.5,233.5 159.5,233.5 158.5,233.5C 158.901,227.777 157.735,222.444 155,217.5C 154.333,218.833 153.667,218.833 153,217.5C 151.198,213.572 149.698,209.572 148.5,205.5 Z"/></g>
<g><path style="opacity:1" fill="#0c1835" d="M 170.5,223.5 C 169.527,223.013 168.527,222.513 167.5,222C 170.921,220.301 173.921,218.135 176.5,215.5C 177.492,215.672 178.158,215.338 178.5,214.5C 180.969,213.217 182.969,213.884 184.5,216.5C 182.118,218.389 179.618,220.056 177,221.5C 175.674,221.245 174.674,220.578 174,219.5C 171.929,220.103 170.762,221.436 170.5,223.5 Z"/></g>
<g><path style="opacity:1" fill="#484660" d="M 166.5,220.5 C 165.903,220.735 165.57,221.235 165.5,222C 166.546,226.11 167.213,230.277 167.5,234.5C 167.167,234.5 166.833,234.5 166.5,234.5C 166.5,234.167 166.5,233.833 166.5,233.5C 165.81,228.983 164.81,224.65 163.5,220.5C 162.732,221.263 162.232,222.263 162,223.5C 160.796,218.343 159.463,213.343 158,208.5C 159.667,210.833 161.333,213.167 163,215.5C 163.333,215.167 163.667,214.833 164,214.5C 164.573,216.641 165.406,218.641 166.5,220.5 Z"/></g>
<g><path style="opacity:1" fill="#875a4c" d="M 204.5,202.5 C 206.5,202.5 208.5,202.5 210.5,202.5C 210.5,203.5 210.5,204.5 210.5,205.5C 209.736,208.018 208.736,210.351 207.5,212.5C 205.926,212.937 204.759,213.937 204,215.5C 203.667,218.5 203.333,221.5 203,224.5C 202.439,225.022 201.772,225.355 201,225.5C 198.349,222.015 195.515,218.682 192.5,215.5C 189.173,212.824 186.506,209.491 184.5,205.5C 185.5,206.167 186.5,206.833 187.5,207.5C 192.077,210.907 195.743,215.074 198.5,220C 199.448,220.483 200.448,220.649 201.5,220.5C 201.34,218.801 201.506,217.134 202,215.5C 203.659,214.183 204.826,212.517 205.5,210.5C 203.089,209.639 201.089,208.306 199.5,206.5C 202.204,206.33 203.871,204.997 204.5,202.5 Z"/></g>
<g><path style="opacity:1" fill="#b47359" d="M 199.5,206.5 C 201.089,208.306 203.089,209.639 205.5,210.5C 204.826,212.517 203.659,214.183 202,215.5C 201.506,217.134 201.34,218.801 201.5,220.5C 200.448,220.649 199.448,220.483 198.5,220C 195.743,215.074 192.077,210.907 187.5,207.5C 191.402,205.583 195.402,205.249 199.5,206.5 Z"/></g>
<g><path style="opacity:1" fill="#263750" d="M 174.5,201.5 C 176.144,201.81 177.144,202.81 177.5,204.5C 179.422,207.763 181.755,210.763 184.5,213.5C 185.736,214.246 187.07,214.579 188.5,214.5C 189.568,215.434 190.901,215.768 192.5,215.5C 193.024,217.306 193.691,218.972 194.5,220.5C 193.833,221.5 193.167,222.5 192.5,223.5C 189.089,230.327 185.756,230.16 182.5,223C 181.184,222.472 180.517,222.972 180.5,224.5C 176.662,228.703 173.328,228.37 170.5,223.5C 170.762,221.436 171.929,220.103 174,219.5C 174.674,220.578 175.674,221.245 177,221.5C 179.618,220.056 182.118,218.389 184.5,216.5C 182.969,213.884 180.969,213.217 178.5,214.5C 177.35,211.275 176.184,207.942 175,204.5C 174.667,205.5 174.333,206.5 174,207.5C 172.627,205.305 172.294,202.971 173,200.5C 173.333,201.5 173.667,202.5 174,203.5C 174.464,202.906 174.631,202.239 174.5,201.5 Z"/></g>
<g><path style="opacity:1" fill="#6b4760" d="M 130.5,219.5 C 133.88,220.245 137.214,221.245 140.5,222.5C 138.009,223.541 138.009,224.374 140.5,225C 139.207,225.49 137.873,225.657 136.5,225.5C 135.833,225.5 135.167,225.5 134.5,225.5C 131.5,225.5 128.5,225.5 125.5,225.5C 125.167,225.5 124.833,225.5 124.5,225.5C 124.5,224.5 124.5,223.5 124.5,222.5C 126.857,222.663 129.19,222.497 131.5,222C 128.964,221.814 126.631,221.314 124.5,220.5C 126.735,220.795 128.735,220.461 130.5,219.5 Z"/></g>
<g><path style="opacity:1" fill="#6e627b" d="M 194.5,220.5 C 195.833,223.167 197.167,225.833 198.5,228.5C 198.737,229.791 198.404,230.791 197.5,231.5C 197.279,228.903 196.779,228.903 196,231.5C 194.924,228.763 193.757,226.096 192.5,223.5C 193.167,222.5 193.833,221.5 194.5,220.5 Z"/></g>
<g><path style="opacity:1" fill="#454f68" d="M 236.5,209.5 C 243.066,211.73 247.732,216.064 250.5,222.5C 248.517,223.471 246.517,224.471 244.5,225.5C 247.573,221.36 247.073,217.693 243,214.5C 242.549,216.929 241.715,217.096 240.5,215C 240.833,214.667 241.167,214.333 241.5,214C 240,213.167 238.833,212 238,210.5C 236.893,211.712 236.393,211.379 236.5,209.5 Z"/></g>
<g><path style="opacity:1" fill="#282f4a" d="M 213.5,197.5 C 213.427,199.027 214.094,200.027 215.5,200.5C 219.222,202.016 222.889,203.683 226.5,205.5C 227.6,206.558 228.934,207.392 230.5,208C 229.328,208.419 228.328,209.085 227.5,210C 229.427,215.732 229.76,221.566 228.5,227.5C 227.21,228.058 226.377,229.058 226,230.5C 225.333,229.167 224.667,229.167 224,230.5C 223.648,228.753 223.148,227.086 222.5,225.5C 222.851,223.131 223.018,220.797 223,218.5C 221.89,216.963 220.39,216.297 218.5,216.5C 218.719,217.675 218.386,218.675 217.5,219.5C 213.599,220.741 210.599,223.074 208.5,226.5C 207.691,228.292 207.191,230.292 207,232.5C 206.641,229.456 205.974,229.122 205,231.5C 204.502,234.817 204.335,238.15 204.5,241.5C 201.056,243.09 198.056,242.424 195.5,239.5C 196.234,238.292 196.567,236.959 196.5,235.5C 193.203,235.671 192.869,235.005 195.5,233.5C 197.214,234.609 197.881,233.942 197.5,231.5C 198.404,230.791 198.737,229.791 198.5,228.5C 203.68,227.649 205.68,224.649 204.5,219.5C 209.359,215.296 212.025,209.962 212.5,203.5C 212.714,201.856 212.38,200.356 211.5,199C 212.044,198.283 212.711,197.783 213.5,197.5 Z"/></g>
<g><path style="opacity:1" fill="#061932" d="M 222.5,225.5 C 220.896,226.287 220.229,227.62 220.5,229.5C 219.5,229.5 218.5,229.5 217.5,229.5C 217.162,227.146 216.662,224.813 216,222.5C 214.478,224.741 213.145,227.074 212,229.5C 211.047,227.627 209.88,227.294 208.5,228.5C 208.5,227.833 208.5,227.167 208.5,226.5C 210.599,223.074 213.599,220.741 217.5,219.5C 218.386,218.675 218.719,217.675 218.5,216.5C 220.39,216.297 221.89,216.963 223,218.5C 223.018,220.797 222.851,223.131 222.5,225.5 Z"/></g>
<g><path style="opacity:1" fill="#253050" d="M 236.5,209.5 C 236.393,211.379 236.893,211.712 238,210.5C 238.833,212 240,213.167 241.5,214C 241.167,214.333 240.833,214.667 240.5,215C 241.715,217.096 242.549,216.929 243,214.5C 247.073,217.693 247.573,221.36 244.5,225.5C 243.883,225.611 243.383,225.944 243,226.5C 240.886,225.047 239.552,223.047 239,220.5C 238.667,220.833 238.333,221.167 238,221.5C 237.163,219.993 235.996,219.493 234.5,220C 234.022,224.487 233.688,228.987 233.5,233.5C 232.933,235.03 232.267,236.53 231.5,238C 233.437,238.122 234.77,238.955 235.5,240.5C 233.585,240.784 231.919,240.451 230.5,239.5C 230.168,234.263 230.834,230.597 232.5,228.5C 231.421,222.484 231.421,216.484 232.5,210.5C 233.736,209.754 235.07,209.421 236.5,209.5 Z"/></g>
<g><path style="opacity:1" fill="#573b40" d="M 207.5,212.5 C 206.011,214.645 205.011,216.978 204.5,219.5C 205.68,224.649 203.68,227.649 198.5,228.5C 197.167,225.833 195.833,223.167 194.5,220.5C 193.691,218.972 193.024,217.306 192.5,215.5C 195.515,218.682 198.349,222.015 201,225.5C 201.772,225.355 202.439,225.022 203,224.5C 203.333,221.5 203.667,218.5 204,215.5C 204.759,213.937 205.926,212.937 207.5,212.5 Z"/></g>
<g><path style="opacity:1" fill="#3b4463" d="M 226.5,205.5 C 230.116,206.314 233.449,207.648 236.5,209.5C 235.07,209.421 233.736,209.754 232.5,210.5C 231.421,216.484 231.421,222.484 232.5,228.5C 230.834,230.597 230.168,234.263 230.5,239.5C 227.206,238.481 223.872,238.481 220.5,239.5C 220.299,236.272 220.633,233.105 221.5,230C 222.698,231.068 222.698,233.235 221.5,236.5C 224.025,237.892 226.192,237.558 228,235.5C 228.497,232.854 228.664,230.187 228.5,227.5C 229.76,221.566 229.427,215.732 227.5,210C 228.328,209.085 229.328,208.419 230.5,208C 228.934,207.392 227.6,206.558 226.5,205.5 Z"/></g>
<g><path style="opacity:1" fill="#505a7e" d="M 176.5,215.5 C 173.921,218.135 170.921,220.301 167.5,222C 168.527,222.513 169.527,223.013 170.5,223.5C 171.713,227.593 173.713,231.259 176.5,234.5C 176.043,235.298 175.376,235.631 174.5,235.5C 172.194,235.007 169.861,234.674 167.5,234.5C 167.213,230.277 166.546,226.11 165.5,222C 165.57,221.235 165.903,220.735 166.5,220.5C 167.338,220.158 167.672,219.492 167.5,218.5C 170.655,218.023 173.655,217.023 176.5,215.5 Z"/></g>
<g><path style="opacity:1" fill="#33486c" d="M 192.5,223.5 C 193.757,226.096 194.924,228.763 196,231.5C 196.779,228.903 197.279,228.903 197.5,231.5C 197.881,233.942 197.214,234.609 195.5,233.5C 192.869,235.005 193.203,235.671 196.5,235.5C 196.567,236.959 196.234,238.292 195.5,239.5C 192.609,238.597 189.609,238.264 186.5,238.5C 183.719,234.865 181.719,230.198 180.5,224.5C 180.517,222.972 181.184,222.472 182.5,223C 185.756,230.16 189.089,230.327 192.5,223.5 Z"/></g>
<g><path style="opacity:1" fill="#253d55" d="M 244.5,225.5 C 246.517,224.471 248.517,223.471 250.5,222.5C 250.5,222.833 250.5,223.167 250.5,223.5C 251.25,227.785 249.917,231.119 246.5,233.5C 244.486,231.983 242.486,231.316 240.5,231.5C 240.5,230.167 239.833,229.5 238.5,229.5C 238.25,228.078 237.417,227.078 236,226.5C 236.03,229.361 235.197,231.695 233.5,233.5C 233.688,228.987 234.022,224.487 234.5,220C 235.996,219.493 237.163,219.993 238,221.5C 238.333,221.167 238.667,220.833 239,220.5C 239.552,223.047 240.886,225.047 243,226.5C 243.383,225.944 243.883,225.611 244.5,225.5 Z"/></g>
<g><path style="opacity:1" fill="#71688e" d="M 163.5,220.5 C 164.81,224.65 165.81,228.983 166.5,233.5C 166.167,233.5 165.833,233.5 165.5,233.5C 164.79,231.254 164.29,228.92 164,226.5C 163.667,227.5 163.333,228.5 163,229.5C 162.699,226.493 162.865,223.493 163.5,220.5 Z"/></g>
<g><path style="opacity:1" fill="#1f3154" d="M 222.5,225.5 C 223.148,227.086 223.648,228.753 224,230.5C 224.667,229.167 225.333,229.167 226,230.5C 226.377,229.058 227.21,228.058 228.5,227.5C 228.664,230.187 228.497,232.854 228,235.5C 226.192,237.558 224.025,237.892 221.5,236.5C 222.698,233.235 222.698,231.068 221.5,230C 220.633,233.105 220.299,236.272 220.5,239.5C 218.833,240.167 217.167,240.833 215.5,241.5C 212.833,241.5 210.167,241.5 207.5,241.5C 207.586,237.143 207.92,232.81 208.5,228.5C 209.88,227.294 211.047,227.627 212,229.5C 213.145,227.074 214.478,224.741 216,222.5C 216.662,224.813 217.162,227.146 217.5,229.5C 218.5,229.5 219.5,229.5 220.5,229.5C 220.229,227.62 220.896,226.287 222.5,225.5 Z"/></g>
<g><path style="opacity:1" fill="#1b335a" d="M 170.5,223.5 C 173.328,228.37 176.662,228.703 180.5,224.5C 181.719,230.198 183.719,234.865 186.5,238.5C 185.833,238.5 185.167,238.5 184.5,238.5C 182.698,237.542 180.698,236.875 178.5,236.5C 176.901,236.768 175.568,236.434 174.5,235.5C 175.376,235.631 176.043,235.298 176.5,234.5C 173.713,231.259 171.713,227.593 170.5,223.5 Z"/></g>
<g><path style="opacity:1" fill="#5f577a" d="M 208.5,226.5 C 208.5,227.167 208.5,227.833 208.5,228.5C 207.92,232.81 207.586,237.143 207.5,241.5C 206.683,239.031 206.183,236.365 206,233.5C 205.817,236.365 205.317,239.031 204.5,241.5C 204.335,238.15 204.502,234.817 205,231.5C 205.974,229.122 206.641,229.456 207,232.5C 207.191,230.292 207.691,228.292 208.5,226.5 Z"/></g>
<g><path style="opacity:1" fill="#3d4e73" d="M 238.5,229.5 C 238.11,232.839 237.61,236.173 237,239.5C 236.617,240.056 236.117,240.389 235.5,240.5C 234.77,238.955 233.437,238.122 231.5,238C 232.267,236.53 232.933,235.03 233.5,233.5C 235.197,231.695 236.03,229.361 236,226.5C 237.417,227.078 238.25,228.078 238.5,229.5 Z"/></g>
<g><path style="opacity:1" fill="#364b69" d="M 250.5,223.5 C 252.608,228.178 253.941,233.178 254.5,238.5C 249.469,237.456 244.469,237.456 239.5,238.5C 239.167,238.167 238.833,237.833 238.5,237.5C 239.05,235.343 239.717,233.343 240.5,231.5C 242.486,231.316 244.486,231.983 246.5,233.5C 249.917,231.119 251.25,227.785 250.5,223.5 Z"/></g>
<g><path style="opacity:1" fill="#253c65" d="M 125.5,225.5 C 128.5,225.5 131.5,225.5 134.5,225.5C 135.297,229.223 136.297,232.89 137.5,236.5C 135.61,236.703 134.11,236.037 133,234.5C 132.536,235.094 132.369,235.761 132.5,236.5C 128.585,233.89 126.252,230.223 125.5,225.5 Z"/></g>
<g><path style="opacity:1" fill="#9e93a9" d="M 124.5,218.5 C 124.5,219.167 124.5,219.833 124.5,220.5C 126.631,221.314 128.964,221.814 131.5,222C 129.19,222.497 126.857,222.663 124.5,222.5C 124.5,223.5 124.5,224.5 124.5,225.5C 123.658,230.787 123.324,236.12 123.5,241.5C 123.815,245.371 123.482,249.038 122.5,252.5C 122.333,241.828 122.5,231.161 123,220.5C 123.278,219.584 123.778,218.918 124.5,218.5 Z"/></g>
<g><path style="opacity:1" fill="#975c75" d="M 165.5,233.5 C 165.833,233.5 166.167,233.5 166.5,233.5C 166.5,233.833 166.5,234.167 166.5,234.5C 167.609,235.29 168.942,235.79 170.5,236C 168.5,236.333 166.5,236.667 164.5,237C 167.167,237.333 169.833,237.667 172.5,238C 170.618,238.198 168.952,238.698 167.5,239.5C 167.307,243.449 166.807,243.449 166,239.5C 165.517,240.448 165.351,241.448 165.5,242.5C 164.732,241.737 164.232,240.737 164,239.5C 162.184,238.671 160.351,237.837 158.5,237C 161.097,236.221 161.097,235.721 158.5,235.5C 158.5,235.167 158.5,234.833 158.5,234.5C 160.467,234.739 162.301,234.406 164,233.5C 164.779,236.097 165.279,236.097 165.5,233.5 Z"/></g>
<g><path style="opacity:1" fill="#794260" d="M 166.5,234.5 C 166.833,234.5 167.167,234.5 167.5,234.5C 169.861,234.674 172.194,235.007 174.5,235.5C 175.568,236.434 176.901,236.768 178.5,236.5C 178.414,237.496 178.748,238.329 179.5,239C 177.19,239.497 174.857,239.663 172.5,239.5C 170.833,239.5 169.167,239.5 167.5,239.5C 168.952,238.698 170.618,238.198 172.5,238C 169.833,237.667 167.167,237.333 164.5,237C 166.5,236.667 168.5,236.333 170.5,236C 168.942,235.79 167.609,235.29 166.5,234.5 Z"/></g>
<g><path style="opacity:1" fill="#446085" d="M 134.5,225.5 C 135.167,225.5 135.833,225.5 136.5,225.5C 137.857,231.514 140.523,236.847 144.5,241.5C 144.376,242.107 144.043,242.44 143.5,242.5C 141.167,240.833 139.167,238.833 137.5,236.5C 136.297,232.89 135.297,229.223 134.5,225.5 Z"/></g>
<g><path style="opacity:1" fill="#686389" d="M 153.5,236.5 C 152.833,239.167 152.167,241.833 151.5,244.5C 150.776,242.782 150.109,240.948 149.5,239C 150.249,237.266 150.749,235.433 151,233.5C 151.333,235.167 151.667,236.833 152,238.5C 152.278,237.584 152.778,236.918 153.5,236.5 Z"/></g>
<g><path style="opacity:1" fill="#352444" d="M 178.5,236.5 C 180.698,236.875 182.698,237.542 184.5,238.5C 184.389,239.117 184.056,239.617 183.5,240C 184.731,241.405 186.064,242.571 187.5,243.5C 187.611,244.117 187.944,244.617 188.5,245C 186.866,245.494 185.199,245.66 183.5,245.5C 183.67,244.178 183.337,243.011 182.5,242C 179.091,241.004 175.758,240.171 172.5,239.5C 174.857,239.663 177.19,239.497 179.5,239C 178.748,238.329 178.414,237.496 178.5,236.5 Z"/></g>
<g><path style="opacity:1" fill="#5a6990" d="M 124.5,225.5 C 124.833,225.5 125.167,225.5 125.5,225.5C 126.252,230.223 128.585,233.89 132.5,236.5C 134.167,238.5 135.833,240.5 137.5,242.5C 138.096,246.358 139.762,249.691 142.5,252.5C 144.005,249.869 144.671,250.203 144.5,253.5C 141.881,253.768 139.381,253.435 137,252.5C 127.416,232.326 126.25,232.826 133.5,254C 133.257,254.902 132.923,255.735 132.5,256.5C 131.167,255.167 129.833,255.167 128.5,256.5C 128.328,252.466 127.828,248.466 127,244.5C 126.667,246.5 126.333,248.5 126,250.5C 125.514,245.752 126.014,241.085 127.5,236.5C 127.457,235.584 127.124,234.917 126.5,234.5C 125.132,236.103 124.132,238.437 123.5,241.5C 123.324,236.12 123.658,230.787 124.5,225.5 Z"/></g>
<g><path style="opacity:1" fill="#6f496c" d="M 252.5,240.5 C 251.737,241.268 250.737,241.768 249.5,242C 251.454,242.162 253.121,242.329 254.5,242.5C 253.551,243.152 252.385,243.486 251,243.5C 247.143,242.895 243.31,242.228 239.5,241.5C 240.317,239.522 241.817,238.522 244,238.5C 247.027,238.912 249.86,239.579 252.5,240.5 Z"/></g>
<g><path style="opacity:1" fill="#897fa5" d="M 126.5,234.5 C 127.124,234.917 127.457,235.584 127.5,236.5C 126.014,241.085 125.514,245.752 126,250.5C 126.333,248.5 126.667,246.5 127,244.5C 127.828,248.466 128.328,252.466 128.5,256.5C 127.591,255.682 127.091,254.016 127,251.5C 126.667,253.5 126.333,255.5 126,257.5C 123.988,249.781 124.154,242.115 126.5,234.5 Z"/></g>
<g><path style="opacity:1" fill="#603954" d="M 207.5,241.5 C 210.167,241.5 212.833,241.5 215.5,241.5C 220.254,241.545 224.92,241.378 229.5,241C 228.167,241.667 228.167,242.333 229.5,243C 228.833,243.333 228.167,243.667 227.5,244C 223.644,244.177 219.977,244.677 216.5,245.5C 215.167,245.5 213.833,245.5 212.5,245.5C 209.904,244.791 207.237,245.125 204.5,246.5C 199.9,245.666 195.234,244.666 190.5,243.5C 189.5,243.5 188.5,243.5 187.5,243.5C 186.064,242.571 184.731,241.405 183.5,240C 184.056,239.617 184.389,239.117 184.5,238.5C 185.167,238.5 185.833,238.5 186.5,238.5C 189.609,238.264 192.609,238.597 195.5,239.5C 198.056,242.424 201.056,243.09 204.5,241.5C 205.317,239.031 205.817,236.365 206,233.5C 206.183,236.365 206.683,239.031 207.5,241.5 Z"/></g>
<g><path style="opacity:1" fill="#4a3651" d="M 238.5,229.5 C 239.833,229.5 240.5,230.167 240.5,231.5C 239.717,233.343 239.05,235.343 238.5,237.5C 238.833,237.833 239.167,238.167 239.5,238.5C 244.469,237.456 249.469,237.456 254.5,238.5C 254.5,239.833 253.833,240.5 252.5,240.5C 249.86,239.579 247.027,238.912 244,238.5C 241.817,238.522 240.317,239.522 239.5,241.5C 237.947,243.385 235.947,244.385 233.5,244.5C 232.209,244.263 231.209,244.596 230.5,245.5C 227.167,245.5 223.833,245.5 220.5,245.5C 219.167,245.5 217.833,245.5 216.5,245.5C 219.977,244.677 223.644,244.177 227.5,244C 228.167,243.667 228.833,243.333 229.5,243C 228.167,242.333 228.167,241.667 229.5,241C 224.92,241.378 220.254,241.545 215.5,241.5C 217.167,240.833 218.833,240.167 220.5,239.5C 223.872,238.481 227.206,238.481 230.5,239.5C 231.919,240.451 233.585,240.784 235.5,240.5C 236.117,240.389 236.617,240.056 237,239.5C 237.61,236.173 238.11,232.839 238.5,229.5 Z"/></g>
<g><path style="opacity:1" fill="#5c3b5d" d="M 158.5,235.5 C 161.097,235.721 161.097,236.221 158.5,237C 160.351,237.837 162.184,238.671 164,239.5C 164.232,240.737 164.732,241.737 165.5,242.5C 165.741,245.034 164.741,246.7 162.5,247.5C 161.504,247.414 160.671,247.748 160,248.5C 158.98,247.109 158.147,245.609 157.5,244C 164.11,241.393 163.777,239.56 156.5,238.5C 156.285,236.821 156.952,235.821 158.5,235.5 Z"/></g>
<g><path style="opacity:1" fill="#374c73" d="M 167.5,239.5 C 169.167,239.5 170.833,239.5 172.5,239.5C 175.758,240.171 179.091,241.004 182.5,242C 183.337,243.011 183.67,244.178 183.5,245.5C 185.199,245.66 186.866,245.494 188.5,245C 187.944,244.617 187.611,244.117 187.5,243.5C 188.5,243.5 189.5,243.5 190.5,243.5C 190.918,244.222 191.584,244.722 192.5,245C 190.862,247.133 190.029,249.633 190,252.5C 188.731,251.095 188.231,249.429 188.5,247.5C 187.5,247.5 186.5,247.5 185.5,247.5C 185.5,249.167 185.5,250.833 185.5,252.5C 181.889,252.956 178.556,252.289 175.5,250.5C 173.574,251.061 171.574,251.227 169.5,251C 174.705,253.346 174.371,255.346 168.5,257C 169.833,257.333 171.167,257.667 172.5,258C 171.975,258.692 171.308,259.192 170.5,259.5C 167.451,257.464 164.618,255.131 162,252.5C 161.36,250.735 161.527,249.068 162.5,247.5C 164.741,246.7 165.741,245.034 165.5,242.5C 165.351,241.448 165.517,240.448 166,239.5C 166.807,243.449 167.307,243.449 167.5,239.5 Z"/></g>
<g><path style="opacity:1" fill="#2b3e60" d="M 212.5,245.5 C 213.833,245.5 215.167,245.5 216.5,245.5C 217.833,245.5 219.167,245.5 220.5,245.5C 221.592,248.063 223.258,250.23 225.5,252C 224.7,255.02 223.033,255.854 220.5,254.5C 218.697,252.519 217.03,250.352 215.5,248C 210.231,246.585 208.564,248.252 210.5,253C 210.392,254.681 209.725,255.848 208.5,256.5C 206.712,253.772 206.212,250.772 207,247.5C 208.725,246.536 210.559,245.869 212.5,245.5 Z"/></g>
<g><path style="opacity:1" fill="#364c6d" d="M 239.5,241.5 C 243.31,242.228 247.143,242.895 251,243.5C 252.385,243.486 253.551,243.152 254.5,242.5C 255.622,244.288 255.789,246.288 255,248.5C 253.159,250.159 251.992,252.159 251.5,254.5C 246.582,255.281 241.582,255.781 236.5,256C 235.62,257.356 235.286,258.856 235.5,260.5C 234.12,260.038 233.453,259.038 233.5,257.5C 235.164,255.019 235.664,252.353 235,249.5C 233.883,250.949 233.216,252.616 233,254.5C 232.457,251.132 232.624,247.799 233.5,244.5C 235.947,244.385 237.947,243.385 239.5,241.5 Z"/></g>
<g><path style="opacity:1" fill="#323f66" d="M 144.5,253.5 C 141.264,254.865 137.931,255.865 134.5,256.5C 133.833,256.5 133.167,256.5 132.5,256.5C 132.923,255.735 133.257,254.902 133.5,254C 126.25,232.826 127.416,232.326 137,252.5C 139.381,253.435 141.881,253.768 144.5,253.5 Z"/></g>
<g><path style="opacity:1" fill="#354370" d="M 137.5,242.5 C 142.499,245.676 147.166,249.342 151.5,253.5C 149.167,253.5 146.833,253.5 144.5,253.5C 144.671,250.203 144.005,249.869 142.5,252.5C 139.762,249.691 138.096,246.358 137.5,242.5 Z"/></g>
<g><path style="opacity:1" fill="#253451" d="M 137.5,236.5 C 139.167,238.833 141.167,240.833 143.5,242.5C 145.259,244.478 146.925,246.644 148.5,249C 151.215,249.878 153.549,251.378 155.5,253.5C 156.429,252.311 156.762,250.978 156.5,249.5C 155.5,249.5 154.5,249.5 153.5,249.5C 153.66,247.801 153.494,246.134 153,244.5C 152.221,247.097 151.721,247.097 151.5,244.5C 152.167,241.833 152.833,239.167 153.5,236.5C 153.369,235.761 153.536,235.094 154,234.5C 154.333,235.833 154.667,237.167 155,238.5C 155.69,239.738 156.19,239.738 156.5,238.5C 163.777,239.56 164.11,241.393 157.5,244C 158.147,245.609 158.98,247.109 160,248.5C 160.671,247.748 161.504,247.414 162.5,247.5C 161.527,249.068 161.36,250.735 162,252.5C 164.618,255.131 167.451,257.464 170.5,259.5C 171.308,259.192 171.975,258.692 172.5,258C 171.167,257.667 169.833,257.333 168.5,257C 174.371,255.346 174.705,253.346 169.5,251C 171.574,251.227 173.574,251.061 175.5,250.5C 178.556,252.289 181.889,252.956 185.5,252.5C 185.5,250.833 185.5,249.167 185.5,247.5C 186.5,247.5 187.5,247.5 188.5,247.5C 188.231,249.429 188.731,251.095 190,252.5C 190.029,249.633 190.862,247.133 192.5,245C 191.584,244.722 190.918,244.222 190.5,243.5C 195.234,244.666 199.9,245.666 204.5,246.5C 204.439,253.033 204.106,259.7 203.5,266.5C 202.842,265.602 202.176,264.602 201.5,263.5C 200.682,266.133 199.016,267.3 196.5,267C 197.863,264.871 197.529,264.371 195.5,265.5C 194.692,263.577 194.192,261.577 194,259.5C 193.667,260.833 193.333,262.167 193,263.5C 192.64,261.392 191.973,259.392 191,257.5C 190.289,259.899 190.456,262.232 191.5,264.5C 185.537,265.496 179.537,265.829 173.5,265.5C 171.816,261.652 168.816,259.819 164.5,260C 165.833,259.333 165.833,258.667 164.5,258C 163.255,257.209 161.922,256.709 160.5,256.5C 159.609,255.89 158.609,255.557 157.5,255.5C 155.708,255.634 154.042,255.301 152.5,254.5C 152.5,253.833 152.167,253.5 151.5,253.5C 147.166,249.342 142.499,245.676 137.5,242.5C 135.833,240.5 134.167,238.5 132.5,236.5C 132.369,235.761 132.536,235.094 133,234.5C 134.11,236.037 135.61,236.703 137.5,236.5 Z"/></g>
<g><path style="opacity:1" fill="#433f5d" d="M 212.5,245.5 C 210.559,245.869 208.725,246.536 207,247.5C 206.212,250.772 206.712,253.772 208.5,256.5C 208.5,257.167 208.5,257.833 208.5,258.5C 207.883,258.389 207.383,258.056 207,257.5C 206.667,260.167 206.333,262.833 206,265.5C 205.667,264.167 205.333,262.833 205,261.5C 204.802,263.382 204.302,265.048 203.5,266.5C 204.106,259.7 204.439,253.033 204.5,246.5C 207.237,245.125 209.904,244.791 212.5,245.5 Z"/></g>
<g><path style="opacity:1" fill="#7f536d" d="M 152.5,254.5 C 154.042,255.301 155.708,255.634 157.5,255.5C 157.953,256.458 158.619,257.292 159.5,258C 157.527,258.495 155.527,258.662 153.5,258.5C 151.097,257.909 149.764,256.742 149.5,255C 150.448,254.517 151.448,254.351 152.5,254.5 Z"/></g>
<g><path style="opacity:1" fill="#425579" d="M 220.5,254.5 C 215.62,254.735 213.287,257.068 213.5,261.5C 211.716,261.107 210.05,260.441 208.5,259.5C 208.5,259.167 208.5,258.833 208.5,258.5C 208.5,257.833 208.5,257.167 208.5,256.5C 209.725,255.848 210.392,254.681 210.5,253C 208.564,248.252 210.231,246.585 215.5,248C 217.03,250.352 218.697,252.519 220.5,254.5 Z"/></g>
<g><path style="opacity:1" fill="#6a4260" d="M 144.5,253.5 C 146.833,253.5 149.167,253.5 151.5,253.5C 152.167,253.5 152.5,253.833 152.5,254.5C 151.448,254.351 150.448,254.517 149.5,255C 149.764,256.742 151.097,257.909 153.5,258.5C 152.5,258.5 151.5,258.5 150.5,258.5C 149.85,258.196 149.183,257.863 148.5,257.5C 144.65,258.982 140.65,259.816 136.5,260C 135.944,260.383 135.611,260.883 135.5,261.5C 132.682,261.657 130.682,262.991 129.5,265.5C 129.872,261.957 131.872,259.79 135.5,259C 134.263,258.768 133.263,258.268 132.5,257.5C 133.492,257.672 134.158,257.338 134.5,256.5C 137.931,255.865 141.264,254.865 144.5,253.5 Z"/></g>
<g><path style="opacity:1" fill="#6b5e88" d="M 126.5,234.5 C 124.154,242.115 123.988,249.781 126,257.5C 126.333,255.5 126.667,253.5 127,251.5C 127.091,254.016 127.591,255.682 128.5,256.5C 129.833,255.167 131.167,255.167 132.5,256.5C 133.167,256.5 133.833,256.5 134.5,256.5C 134.158,257.338 133.492,257.672 132.5,257.5C 129.167,259.5 125.833,261.5 122.5,263.5C 122.5,260.167 122.5,256.833 122.5,253.5C 122.5,253.167 122.5,252.833 122.5,252.5C 123.482,249.038 123.815,245.371 123.5,241.5C 124.132,238.437 125.132,236.103 126.5,234.5 Z"/></g>
<g><path style="opacity:1" fill="#a06a8e" d="M 132.5,257.5 C 133.263,258.268 134.263,258.768 135.5,259C 131.872,259.79 129.872,261.957 129.5,265.5C 129.5,265.833 129.5,266.167 129.5,266.5C 127.501,267.857 126.335,267.19 126,264.5C 123.277,268.756 122.11,268.422 122.5,263.5C 125.833,261.5 129.167,259.5 132.5,257.5 Z"/></g>
<g><path style="opacity:1" fill="#3c274b" d="M 157.5,255.5 C 158.609,255.557 159.609,255.89 160.5,256.5C 160.5,258.167 160.5,259.833 160.5,261.5C 157.296,260.011 153.963,259.011 150.5,258.5C 151.5,258.5 152.5,258.5 153.5,258.5C 155.527,258.662 157.527,258.495 159.5,258C 158.619,257.292 157.953,256.458 157.5,255.5 Z"/></g>
<g><path style="opacity:1" fill="#15263e" d="M 233.5,244.5 C 232.624,247.799 232.457,251.132 233,254.5C 233.216,252.616 233.883,250.949 235,249.5C 235.664,252.353 235.164,255.019 233.5,257.5C 233.453,259.038 234.12,260.038 235.5,260.5C 235.52,262.143 234.853,263.476 233.5,264.5C 234.766,266.972 234.766,269.306 233.5,271.5C 232.833,270.167 232.167,270.167 231.5,271.5C 230.348,272.625 229.348,272.625 228.5,271.5C 228.644,266.633 228.31,262.133 227.5,258C 228.744,257.544 229.577,258.044 230,259.5C 230.494,257.866 230.66,256.199 230.5,254.5C 230.5,251.5 230.5,248.5 230.5,245.5C 231.209,244.596 232.209,244.263 233.5,244.5 Z"/></g>
<g><path style="opacity:1" fill="#4d5b74" d="M 254.5,238.5 C 256.729,245.332 258.729,252.332 260.5,259.5C 260.5,260.833 260.5,262.167 260.5,263.5C 258.833,263.5 257.167,263.5 255.5,263.5C 255.244,269.565 254.244,269.232 252.5,262.5C 252.34,260.801 252.506,259.134 253,257.5C 253.249,258.624 253.749,259.624 254.5,260.5C 254.833,260.167 255.167,259.833 255.5,259.5C 254.754,258.264 254.421,256.93 254.5,255.5C 253.209,255.737 252.209,255.404 251.5,254.5C 251.992,252.159 253.159,250.159 255,248.5C 255.789,246.288 255.622,244.288 254.5,242.5C 253.121,242.329 251.454,242.162 249.5,242C 250.737,241.768 251.737,241.268 252.5,240.5C 253.833,240.5 254.5,239.833 254.5,238.5 Z"/></g>
<g><path style="opacity:1" fill="#514967" d="M 220.5,245.5 C 223.833,245.5 227.167,245.5 230.5,245.5C 230.5,248.5 230.5,251.5 230.5,254.5C 229.417,254.539 228.417,254.873 227.5,255.5C 226.792,258.366 226.125,261.2 225.5,264C 226.993,265.156 226.826,265.99 225,266.5C 223.831,265.991 222.998,265.158 222.5,264C 223.956,263.577 224.456,262.744 224,261.5C 220.459,262.706 216.959,262.706 213.5,261.5C 213.287,257.068 215.62,254.735 220.5,254.5C 223.033,255.854 224.7,255.02 225.5,252C 223.258,250.23 221.592,248.063 220.5,245.5 Z"/></g>
<g><path style="opacity:1" fill="#1d1836" d="M 160.5,256.5 C 161.922,256.709 163.255,257.209 164.5,258C 165.833,258.667 165.833,259.333 164.5,260C 168.816,259.819 171.816,261.652 173.5,265.5C 170.475,265.123 167.475,264.956 164.5,265C 163.947,266.878 162.947,268.378 161.5,269.5C 161.599,266.763 161.265,264.096 160.5,261.5C 160.5,259.833 160.5,258.167 160.5,256.5 Z"/></g>
<g><path style="opacity:1" fill="#526992" d="M 135.5,261.5 C 136.117,261.611 136.617,261.944 137,262.5C 137.333,264.833 137.667,267.167 138,269.5C 138.417,270.756 139.25,271.423 140.5,271.5C 138.959,274.183 136.626,275.016 133.5,274C 132.934,273.005 132.267,272.172 131.5,271.5C 130.833,269.833 130.167,268.167 129.5,266.5C 129.5,266.167 129.5,265.833 129.5,265.5C 130.682,262.991 132.682,261.657 135.5,261.5 Z"/></g>
<g><path style="opacity:1" fill="#2a4169" d="M 150.5,258.5 C 153.963,259.011 157.296,260.011 160.5,261.5C 161.265,264.096 161.599,266.763 161.5,269.5C 161.443,270.609 161.11,271.609 160.5,272.5C 159.5,272.5 158.5,272.5 157.5,272.5C 155.277,268.264 152.611,264.264 149.5,260.5C 149.167,260.667 148.833,260.833 148.5,261C 150.826,264.146 152.159,267.646 152.5,271.5C 150.292,271.701 147.959,271.367 145.5,270.5C 143.375,267.419 141.542,264.086 140,260.5C 139.721,264.17 139.888,267.837 140.5,271.5C 139.25,271.423 138.417,270.756 138,269.5C 137.667,267.167 137.333,264.833 137,262.5C 136.617,261.944 136.117,261.611 135.5,261.5C 135.611,260.883 135.944,260.383 136.5,260C 140.65,259.816 144.65,258.982 148.5,257.5C 149.183,257.863 149.85,258.196 150.5,258.5 Z"/></g>
<g><path style="opacity:1" fill="#4a668d" d="M 157.5,272.5 C 155.833,271.167 154.167,271.167 152.5,272.5C 152.5,272.167 152.5,271.833 152.5,271.5C 152.159,267.646 150.826,264.146 148.5,261C 148.833,260.833 149.167,260.667 149.5,260.5C 152.611,264.264 155.277,268.264 157.5,272.5 Z"/></g>
<g><path style="opacity:1" fill="#865c51" d="M 185.5,267.5 C 188.692,267.405 191.692,268.071 194.5,269.5C 194.5,269.833 194.5,270.167 194.5,270.5C 194.167,271.5 193.5,272.167 192.5,272.5C 191.167,271.833 189.833,271.167 188.5,270.5C 186.527,269.837 184.361,269.504 182,269.5C 176.8,270.402 171.634,271.402 166.5,272.5C 167.013,276.879 167.847,281.213 169,285.5C 169.383,286.056 169.883,286.389 170.5,286.5C 170.5,287.833 170.5,289.167 170.5,290.5C 168.286,288.005 167.119,285.005 167,281.5C 166.292,280.619 165.458,279.953 164.5,279.5C 164.5,278.5 164.5,277.5 164.5,276.5C 164.365,272.939 165.698,270.105 168.5,268C 174.157,267.501 179.824,267.334 185.5,267.5 Z"/></g>
<g><path style="opacity:1" fill="#232337" d="M 203.5,266.5 C 204.302,265.048 204.802,263.382 205,261.5C 205.333,262.833 205.667,264.167 206,265.5C 206.333,262.833 206.667,260.167 207,257.5C 207.383,258.056 207.883,258.389 208.5,258.5C 208.5,258.833 208.5,259.167 208.5,259.5C 208.407,264.121 208.074,268.788 207.5,273.5C 209.199,273.38 210.865,273.046 212.5,272.5C 215.634,273.933 218.801,275.266 222,276.5C 222.833,276.333 223.667,276.167 224.5,276C 225.283,273.882 226.616,272.382 228.5,271.5C 229.348,272.625 230.348,272.625 231.5,271.5C 231.376,273.582 230.376,275.082 228.5,276C 231.167,276.667 231.167,277.333 228.5,278C 231.167,278.667 233.833,278.667 236.5,278C 235.833,277.667 235.167,277.333 234.5,277C 236.134,276.506 237.801,276.34 239.5,276.5C 240.609,276.557 241.609,276.89 242.5,277.5C 242.389,278.117 242.056,278.617 241.5,279C 237.688,279.795 234.021,280.629 230.5,281.5C 227.833,281.167 225.167,280.833 222.5,280.5C 221.5,280.5 220.5,280.5 219.5,280.5C 217.139,280.326 214.806,279.993 212.5,279.5C 210.227,276.829 207.227,275.495 203.5,275.5C 203.672,274.508 203.338,273.842 202.5,273.5C 202.586,272.504 202.252,271.671 201.5,271C 199.26,270.023 196.927,269.523 194.5,269.5C 191.692,268.071 188.692,267.405 185.5,267.5C 179.347,266.347 173.014,266.18 166.5,267C 165.333,267.5 164.5,268.333 164,269.5C 163.204,272.039 163.371,274.372 164.5,276.5C 164.5,277.5 164.5,278.5 164.5,279.5C 161.932,277.919 160.599,275.586 160.5,272.5C 161.11,271.609 161.443,270.609 161.5,269.5C 162.947,268.378 163.947,266.878 164.5,265C 167.475,264.956 170.475,265.123 173.5,265.5C 179.537,265.829 185.537,265.496 191.5,264.5C 190.456,262.232 190.289,259.899 191,257.5C 191.973,259.392 192.64,261.392 193,263.5C 193.333,262.167 193.667,260.833 194,259.5C 194.192,261.577 194.692,263.577 195.5,265.5C 197.529,264.371 197.863,264.871 196.5,267C 199.016,267.3 200.682,266.133 201.5,263.5C 202.176,264.602 202.842,265.602 203.5,266.5 Z"/></g>
<g><path style="opacity:1" fill="#4f393c" d="M 185.5,267.5 C 179.824,267.334 174.157,267.501 168.5,268C 165.698,270.105 164.365,272.939 164.5,276.5C 163.371,274.372 163.204,272.039 164,269.5C 164.5,268.333 165.333,267.5 166.5,267C 173.014,266.18 179.347,266.347 185.5,267.5 Z"/></g>
<g><path style="opacity:1" fill="#415270" d="M 251.5,254.5 C 252.209,255.404 253.209,255.737 254.5,255.5C 254.421,256.93 254.754,258.264 255.5,259.5C 255.167,259.833 254.833,260.167 254.5,260.5C 253.749,259.624 253.249,258.624 253,257.5C 252.506,259.134 252.34,260.801 252.5,262.5C 251.221,261.032 249.554,260.365 247.5,260.5C 250.093,267.572 248.426,273.238 242.5,277.5C 241.609,276.89 240.609,276.557 239.5,276.5C 237.735,275.539 235.735,275.205 233.5,275.5C 233.5,274.167 233.5,272.833 233.5,271.5C 234.766,269.306 234.766,266.972 233.5,264.5C 234.853,263.476 235.52,262.143 235.5,260.5C 235.286,258.856 235.62,257.356 236.5,256C 241.582,255.781 246.582,255.281 251.5,254.5 Z"/></g>
<g><path style="opacity:1" fill="#838993" d="M 194.5,270.5 C 194.5,270.167 194.5,269.833 194.5,269.5C 196.927,269.523 199.26,270.023 201.5,271C 202.252,271.671 202.586,272.504 202.5,273.5C 200.085,272.695 197.751,271.695 195.5,270.5C 195.167,270.5 194.833,270.5 194.5,270.5 Z"/></g>
<g><path style="opacity:1" fill="#263451" d="M 230.5,254.5 C 230.66,256.199 230.494,257.866 230,259.5C 229.577,258.044 228.744,257.544 227.5,258C 228.31,262.133 228.644,266.633 228.5,271.5C 226.616,272.382 225.283,273.882 224.5,276C 223.667,276.167 222.833,276.333 222,276.5C 218.801,275.266 215.634,273.933 212.5,272.5C 210.865,273.046 209.199,273.38 207.5,273.5C 208.074,268.788 208.407,264.121 208.5,259.5C 210.05,260.441 211.716,261.107 213.5,261.5C 216.959,262.706 220.459,262.706 224,261.5C 224.456,262.744 223.956,263.577 222.5,264C 222.998,265.158 223.831,265.991 225,266.5C 226.826,265.99 226.993,265.156 225.5,264C 226.125,261.2 226.792,258.366 227.5,255.5C 228.417,254.873 229.417,254.539 230.5,254.5 Z"/></g>
<g><path style="opacity:1" fill="#152f4a" d="M 145.5,270.5 C 147.959,271.367 150.292,271.701 152.5,271.5C 152.5,271.833 152.5,272.167 152.5,272.5C 153.234,273.708 153.567,275.041 153.5,276.5C 152.531,277.309 151.698,278.309 151,279.5C 149.989,278.663 148.822,278.33 147.5,278.5C 149.031,277.075 148.698,276.409 146.5,276.5C 145.829,275.153 145.829,273.986 146.5,273C 144.381,272.658 144.047,271.825 145.5,270.5 Z"/></g>
<g><path style="opacity:1" fill="#3a4f64" d="M 157.5,272.5 C 158.5,272.5 159.5,272.5 160.5,272.5C 160.599,275.586 161.932,277.919 164.5,279.5C 164.5,280.833 164.5,282.167 164.5,283.5C 163.03,281.849 161.697,280.015 160.5,278C 158.187,277.338 155.854,276.838 153.5,276.5C 153.567,275.041 153.234,273.708 152.5,272.5C 154.167,271.167 155.833,271.167 157.5,272.5 Z"/></g>
<g><path style="opacity:1" fill="#c17e67" d="M 188.5,270.5 C 182.616,270.554 176.949,271.721 171.5,274C 171.957,274.414 172.291,274.914 172.5,275.5C 170.851,276.148 169.518,277.148 168.5,278.5C 170.223,280.868 170.89,283.534 170.5,286.5C 169.883,286.389 169.383,286.056 169,285.5C 167.847,281.213 167.013,276.879 166.5,272.5C 171.634,271.402 176.8,270.402 182,269.5C 184.361,269.504 186.527,269.837 188.5,270.5 Z"/></g>
<g><path style="opacity:1" fill="#526382" d="M 258.5,270.5 C 258.69,275.138 260.357,279.138 263.5,282.5C 263.043,283.298 262.376,283.631 261.5,283.5C 258.162,282.24 254.662,281.24 251,280.5C 251.958,278.065 252.458,275.399 252.5,272.5C 254.718,272.386 256.718,271.72 258.5,270.5 Z"/></g>
<g><path style="opacity:1" fill="#7d5970" d="M 233.5,271.5 C 233.5,272.833 233.5,274.167 233.5,275.5C 235.735,275.205 237.735,275.539 239.5,276.5C 237.801,276.34 236.134,276.506 234.5,277C 235.167,277.333 235.833,277.667 236.5,278C 233.833,278.667 231.167,278.667 228.5,278C 231.167,277.333 231.167,276.667 228.5,276C 230.376,275.082 231.376,273.582 231.5,271.5C 232.167,270.167 232.833,270.167 233.5,271.5 Z"/></g>
<g><path style="opacity:1" fill="#e9eae7" d="M 195.5,270.5 C 197.751,271.695 200.085,272.695 202.5,273.5C 202.88,278.398 201.047,282.065 197,284.5C 196.082,282.368 194.749,281.701 193,282.5C 192.833,281.333 192.667,280.167 192.5,279C 193.497,276.167 194.497,273.334 195.5,270.5 Z"/></g>
<g><path style="opacity:1" fill="#6f524d" d="M 203.5,276.5 C 203.5,276.167 203.5,275.833 203.5,275.5C 207.227,275.495 210.227,276.829 212.5,279.5C 209.345,279.023 206.345,278.023 203.5,276.5 Z"/></g>
<g><path style="opacity:1" fill="#4f5e76" d="M 145.5,270.5 C 144.047,271.825 144.381,272.658 146.5,273C 145.829,273.986 145.829,275.153 146.5,276.5C 143.67,276.694 141.004,277.361 138.5,278.5C 138.5,279.5 138.5,280.5 138.5,281.5C 137.069,281.881 136.236,282.881 136,284.5C 133.921,280.347 132.421,276.014 131.5,271.5C 132.267,272.172 132.934,273.005 133.5,274C 136.626,275.016 138.959,274.183 140.5,271.5C 139.888,267.837 139.721,264.17 140,260.5C 141.542,264.086 143.375,267.419 145.5,270.5 Z"/></g>
<g><path style="opacity:1" fill="#d79375" d="M 188.5,270.5 C 188.61,273.059 187.944,275.392 186.5,277.5C 181.922,274.846 177.922,275.679 174.5,280C 175.061,281.676 176.061,283.009 177.5,284C 172.953,284.778 171.953,286.778 174.5,290C 176.473,290.495 178.473,290.662 180.5,290.5C 179.791,291.404 178.791,291.737 177.5,291.5C 175.097,291.552 172.764,291.219 170.5,290.5C 170.5,289.167 170.5,287.833 170.5,286.5C 170.89,283.534 170.223,280.868 168.5,278.5C 169.518,277.148 170.851,276.148 172.5,275.5C 172.291,274.914 171.957,274.414 171.5,274C 176.949,271.721 182.616,270.554 188.5,270.5 Z"/></g>
<g><path style="opacity:1" fill="#e5a483" d="M 188.5,270.5 C 189.833,271.167 191.167,271.833 192.5,272.5C 190.724,275.77 190.057,279.103 190.5,282.5C 189.946,286.055 187.946,288.389 184.5,289.5C 183.292,290.234 181.959,290.567 180.5,290.5C 178.473,290.662 176.473,290.495 174.5,290C 171.953,286.778 172.953,284.778 177.5,284C 176.061,283.009 175.061,281.676 174.5,280C 177.922,275.679 181.922,274.846 186.5,277.5C 187.944,275.392 188.61,273.059 188.5,270.5 Z"/></g>
<g><path style="opacity:1" fill="#4a5e87" d="M 146.5,276.5 C 148.698,276.409 149.031,277.075 147.5,278.5C 149.9,280.296 151.567,282.63 152.5,285.5C 149.37,285.7 146.37,286.366 143.5,287.5C 142.5,287.5 141.5,287.5 140.5,287.5C 140.296,285.315 139.63,283.315 138.5,281.5C 138.5,280.5 138.5,279.5 138.5,278.5C 141.004,277.361 143.67,276.694 146.5,276.5 Z"/></g>
<g><path style="opacity:1" fill="#294166" d="M 153.5,276.5 C 155.854,276.838 158.187,277.338 160.5,278C 161.697,280.015 163.03,281.849 164.5,283.5C 165.434,284.568 165.768,285.901 165.5,287.5C 164.778,287.918 164.278,288.584 164,289.5C 160.578,287.081 156.744,285.748 152.5,285.5C 151.567,282.63 149.9,280.296 147.5,278.5C 148.822,278.33 149.989,278.663 151,279.5C 151.698,278.309 152.531,277.309 153.5,276.5 Z"/></g>
<g><path style="opacity:1" fill="#eadfd3" d="M 194.5,270.5 C 194.833,270.5 195.167,270.5 195.5,270.5C 194.497,273.334 193.497,276.167 192.5,279C 192.667,280.167 192.833,281.333 193,282.5C 194.749,281.701 196.082,282.368 197,284.5C 201.047,282.065 202.88,278.398 202.5,273.5C 203.338,273.842 203.672,274.508 203.5,275.5C 203.5,275.833 203.5,276.167 203.5,276.5C 203.662,278.527 203.495,280.527 203,282.5C 200.817,284.907 198.65,287.24 196.5,289.5C 191.627,289.627 189.627,287.294 190.5,282.5C 190.057,279.103 190.724,275.77 192.5,272.5C 193.5,272.167 194.167,271.5 194.5,270.5 Z"/></g>
<g><path style="opacity:1" fill="#77544d" d="M 212.5,279.5 C 214.806,279.993 217.139,280.326 219.5,280.5C 220.73,282.297 221.396,284.297 221.5,286.5C 219.044,283.421 216.044,281.088 212.5,279.5 Z"/></g>
<g><path style="opacity:1" fill="#6f536c" d="M 222.5,280.5 C 225.167,280.833 227.833,281.167 230.5,281.5C 230.7,286.505 232.033,291.172 234.5,295.5C 238.129,296.238 241.796,296.071 245.5,295C 244.944,294.617 244.611,294.117 244.5,293.5C 245.167,293.5 245.833,293.5 246.5,293.5C 248.265,294.461 250.265,294.795 252.5,294.5C 252.5,295.167 252.5,295.833 252.5,296.5C 248.971,296.557 245.971,297.557 243.5,299.5C 243.672,300.492 243.338,301.158 242.5,301.5C 236.673,300.478 230.673,299.645 224.5,299C 230.5,298.667 236.5,298.333 242.5,298C 239.183,297.502 235.85,297.335 232.5,297.5C 231.671,294.185 230.838,290.852 230,287.5C 229.578,285.574 228.411,284.574 226.5,284.5C 225.292,283.766 223.959,283.433 222.5,283.5C 222.5,282.5 222.5,281.5 222.5,280.5 Z"/></g>
<g><path style="opacity:1" fill="#7a759b" d="M 122.5,253.5 C 122.5,256.833 122.5,260.167 122.5,263.5C 122.11,268.422 123.277,268.756 126,264.5C 126.335,267.19 127.501,267.857 129.5,266.5C 130.167,268.167 130.833,269.833 131.5,271.5C 132.421,276.014 133.921,280.347 136,284.5C 136.236,282.881 137.069,281.881 138.5,281.5C 139.63,283.315 140.296,285.315 140.5,287.5C 141.5,287.5 142.5,287.5 143.5,287.5C 142.135,289.751 142.469,291.751 144.5,293.5C 142.419,295.441 140.419,296.775 138.5,297.5C 138.306,295.088 136.973,294.088 134.5,294.5C 134.037,291.779 133.371,289.112 132.5,286.5C 133.823,283.719 133.656,281.053 132,278.5C 131.667,279.167 131.333,279.833 131,280.5C 129.864,278.257 129.03,275.924 128.5,273.5C 128.108,271.821 127.608,270.154 127,268.5C 126.368,270.531 125.201,272.198 123.5,273.5C 122.516,276.428 122.183,279.428 122.5,282.5C 122.5,283.833 122.5,285.167 122.5,286.5C 121.167,275.5 121.167,264.5 122.5,253.5 Z"/></g>
<g><path style="opacity:1" fill="#675f7e" d="M 128.5,273.5 C 129.03,275.924 129.864,278.257 131,280.5C 131.333,279.833 131.667,279.167 132,278.5C 133.656,281.053 133.823,283.719 132.5,286.5C 132.167,286.5 131.833,286.5 131.5,286.5C 131.238,284.436 130.071,283.103 128,282.5C 127.517,281.552 127.351,280.552 127.5,279.5C 127.541,277.534 127.875,275.534 128.5,273.5 Z"/></g>
<g><path style="opacity:1" fill="#5f719f" d="M 128.5,273.5 C 127.875,275.534 127.541,277.534 127.5,279.5C 125.646,280.241 123.979,281.241 122.5,282.5C 122.183,279.428 122.516,276.428 123.5,273.5C 125.201,272.198 126.368,270.531 127,268.5C 127.608,270.154 128.108,271.821 128.5,273.5 Z"/></g>
<g><path style="opacity:1" fill="#635970" d="M 260.5,259.5 C 263.322,269.202 265.322,279.202 266.5,289.5C 265.596,288.791 265.263,287.791 265.5,286.5C 264.041,286.433 262.708,286.766 261.5,287.5C 261.5,286.167 261.5,284.833 261.5,283.5C 262.376,283.631 263.043,283.298 263.5,282.5C 260.357,279.138 258.69,275.138 258.5,270.5C 261.442,268.78 262.109,266.447 260.5,263.5C 260.5,262.167 260.5,260.833 260.5,259.5 Z"/></g>
<g><path style="opacity:1" fill="#5c738d" d="M 127.5,279.5 C 127.351,280.552 127.517,281.552 128,282.5C 130.071,283.103 131.238,284.436 131.5,286.5C 131.505,290.344 129.672,293.01 126,294.5C 125.098,294.257 124.265,293.923 123.5,293.5C 122.532,291.393 122.198,289.059 122.5,286.5C 122.5,285.167 122.5,283.833 122.5,282.5C 123.979,281.241 125.646,280.241 127.5,279.5 Z"/></g>
<g><path style="opacity:1" fill="#212646" d="M 152.5,285.5 C 156.744,285.748 160.578,287.081 164,289.5C 164.278,288.584 164.778,287.918 165.5,287.5C 165.67,288.822 165.337,289.989 164.5,291C 165.094,291.464 165.761,291.631 166.5,291.5C 166.557,292.609 166.89,293.609 167.5,294.5C 166.391,294.557 165.391,294.89 164.5,295.5C 160.96,295.806 159.626,294.473 160.5,291.5C 157.763,290.188 154.929,289.188 152,288.5C 151.601,288.728 151.435,289.062 151.5,289.5C 149.517,289.157 148.183,289.824 147.5,291.5C 146.5,292.167 145.5,292.833 144.5,293.5C 142.469,291.751 142.135,289.751 143.5,287.5C 146.37,286.366 149.37,285.7 152.5,285.5 Z"/></g>
<g><path style="opacity:1" fill="#464761" d="M 261.5,287.5 C 262.708,286.766 264.041,286.433 265.5,286.5C 265.263,287.791 265.596,288.791 266.5,289.5C 266.5,289.833 266.5,290.167 266.5,290.5C 265.852,292.086 265.352,293.753 265,295.5C 264.586,295.043 264.086,294.709 263.5,294.5C 261.925,295.456 260.258,296.123 258.5,296.5C 258.5,296.167 258.5,295.833 258.5,295.5C 260.879,294.438 260.879,293.105 258.5,291.5C 256.591,292.348 254.591,292.682 252.5,292.5C 250.862,285.878 250.529,285.878 251.5,292.5C 250.675,293.386 249.675,293.719 248.5,293.5C 247.391,292.71 246.058,292.21 244.5,292C 245.833,291.333 245.833,290.667 244.5,290C 246.618,289.74 248.284,288.74 249.5,287C 248.167,285.667 246.833,284.333 245.5,283C 248.062,281.727 250.396,282.394 252.5,285C 256.12,284.852 258.62,286.352 260,289.5C 260.278,288.584 260.778,287.918 261.5,287.5 Z"/></g>
<g><path style="opacity:1" fill="#374463" d="M 252.5,262.5 C 254.244,269.232 255.244,269.565 255.5,263.5C 257.167,263.5 258.833,263.5 260.5,263.5C 262.109,266.447 261.442,268.78 258.5,270.5C 256.718,271.72 254.718,272.386 252.5,272.5C 252.458,275.399 251.958,278.065 251,280.5C 254.662,281.24 258.162,282.24 261.5,283.5C 261.5,284.833 261.5,286.167 261.5,287.5C 260.778,287.918 260.278,288.584 260,289.5C 258.62,286.352 256.12,284.852 252.5,285C 250.396,282.394 248.062,281.727 245.5,283C 246.833,284.333 248.167,285.667 249.5,287C 248.284,288.74 246.618,289.74 244.5,290C 245.833,290.667 245.833,291.333 244.5,292C 246.058,292.21 247.391,292.71 248.5,293.5C 247.833,293.5 247.167,293.5 246.5,293.5C 245.833,293.5 245.167,293.5 244.5,293.5C 242.599,290.23 240.599,286.897 238.5,283.5C 235.813,282.74 233.147,282.073 230.5,281.5C 234.021,280.629 237.688,279.795 241.5,279C 242.056,278.617 242.389,278.117 242.5,277.5C 248.426,273.238 250.093,267.572 247.5,260.5C 249.554,260.365 251.221,261.032 252.5,262.5 Z"/></g>
<g><path style="opacity:1" fill="#958484" d="M 190.5,282.5 C 189.627,287.294 191.627,289.627 196.5,289.5C 196.167,290.833 195.833,292.167 195.5,293.5C 192.166,291.337 188.5,290.004 184.5,289.5C 187.946,288.389 189.946,286.055 190.5,282.5 Z"/></g>
<g><path style="opacity:1" fill="#e49b7a" d="M 221.5,291.5 C 222.051,294.807 222.384,298.14 222.5,301.5C 220.926,301.937 219.759,302.937 219,304.5C 216.825,303.745 214.659,302.912 212.5,302C 211.663,300.989 211.33,299.822 211.5,298.5C 206.219,297.886 203.219,294.886 202.5,289.5C 203.484,283.112 207.151,280.612 213.5,282C 215.252,284.334 217.419,286.167 220,287.5C 220.41,288.901 220.91,290.234 221.5,291.5 Z"/></g>
<g><path style="opacity:1" fill="#c88c75" d="M 203.5,276.5 C 206.345,278.023 209.345,279.023 212.5,279.5C 216.044,281.088 219.044,283.421 221.5,286.5C 221.629,288.216 221.962,289.883 222.5,291.5C 222.167,291.5 221.833,291.5 221.5,291.5C 220.91,290.234 220.41,288.901 220,287.5C 217.419,286.167 215.252,284.334 213.5,282C 207.151,280.612 203.484,283.112 202.5,289.5C 203.219,294.886 206.219,297.886 211.5,298.5C 211.33,299.822 211.663,300.989 212.5,302C 214.659,302.912 216.825,303.745 219,304.5C 219.759,302.937 220.926,301.937 222.5,301.5C 223.167,301.5 223.833,301.5 224.5,301.5C 224.5,304.167 224.5,306.833 224.5,309.5C 222.283,310.369 219.95,310.702 217.5,310.5C 214.175,308.169 210.842,305.836 207.5,303.5C 205.781,300.781 203.447,298.781 200.5,297.5C 199.055,295.937 197.389,294.604 195.5,293.5C 195.833,292.167 196.167,290.833 196.5,289.5C 198.65,287.24 200.817,284.907 203,282.5C 203.495,280.527 203.662,278.527 203.5,276.5 Z"/></g>
<g><path style="opacity:1" fill="#8f6171" d="M 226.5,284.5 C 228.411,284.574 229.578,285.574 230,287.5C 230.838,290.852 231.671,294.185 232.5,297.5C 229.302,298.036 226.635,297.369 224.5,295.5C 225.833,295.5 227.167,295.5 228.5,295.5C 227.298,291.952 226.631,288.285 226.5,284.5 Z"/></g>
<g><path style="opacity:1" fill="#4d3435" d="M 164.5,279.5 C 165.458,279.953 166.292,280.619 167,281.5C 167.119,285.005 168.286,288.005 170.5,290.5C 172.764,291.219 175.097,291.552 177.5,291.5C 173.935,292.787 170.268,292.787 166.5,291.5C 165.761,291.631 165.094,291.464 164.5,291C 165.337,289.989 165.67,288.822 165.5,287.5C 165.768,285.901 165.434,284.568 164.5,283.5C 164.5,282.167 164.5,280.833 164.5,279.5 Z"/></g>
<g><path style="opacity:1" fill="#786979" d="M 219.5,280.5 C 220.5,280.5 221.5,280.5 222.5,280.5C 222.5,281.5 222.5,282.5 222.5,283.5C 223.959,283.433 225.292,283.766 226.5,284.5C 226.631,288.285 227.298,291.952 228.5,295.5C 227.167,295.5 225.833,295.5 224.5,295.5C 223.655,294.329 222.989,292.995 222.5,291.5C 221.962,289.883 221.629,288.216 221.5,286.5C 221.396,284.297 220.73,282.297 219.5,280.5 Z"/></g>
<g><path style="opacity:1" fill="#626785" d="M 230.5,281.5 C 233.147,282.073 235.813,282.74 238.5,283.5C 240.599,286.897 242.599,290.23 244.5,293.5C 244.611,294.117 244.944,294.617 245.5,295C 241.796,296.071 238.129,296.238 234.5,295.5C 232.033,291.172 230.7,286.505 230.5,281.5 Z"/></g>
<g><path style="opacity:1" fill="#896b86" d="M 258.5,295.5 C 257.833,295.5 257.167,295.5 256.5,295.5C 256.918,294.778 257.584,294.278 258.5,294C 256.288,293.211 254.288,293.378 252.5,294.5C 250.265,294.795 248.265,294.461 246.5,293.5C 247.167,293.5 247.833,293.5 248.5,293.5C 249.675,293.719 250.675,293.386 251.5,292.5C 250.529,285.878 250.862,285.878 252.5,292.5C 254.591,292.682 256.591,292.348 258.5,291.5C 260.879,293.105 260.879,294.438 258.5,295.5 Z"/></g>
<g><path style="opacity:1" fill="#182a46" d="M 197.5,303.5 C 196.833,303.5 196.167,303.5 195.5,303.5C 191.09,302.316 186.757,300.983 182.5,299.5C 182.606,302.079 181.939,304.412 180.5,306.5C 179.957,306.44 179.624,306.107 179.5,305.5C 180.167,304.167 180.833,302.833 181.5,301.5C 180.264,300.643 178.931,299.977 177.5,299.5C 176.269,298.349 176.269,297.183 177.5,296C 175.866,295.506 174.199,295.34 172.5,295.5C 181.376,290.837 189.876,291.504 198,297.5C 198.789,299.712 198.622,301.712 197.5,303.5 Z"/></g>
<g><path style="opacity:1" fill="#d2949f" d="M 221.5,291.5 C 221.833,291.5 222.167,291.5 222.5,291.5C 222.989,292.995 223.655,294.329 224.5,295.5C 226.635,297.369 229.302,298.036 232.5,297.5C 235.85,297.335 239.183,297.502 242.5,298C 236.5,298.333 230.5,298.667 224.5,299C 230.673,299.645 236.673,300.478 242.5,301.5C 242.167,301.5 241.833,301.5 241.5,301.5C 238.5,301.5 235.5,301.5 232.5,301.5C 230.5,301.5 228.5,301.5 226.5,301.5C 225.833,301.5 225.167,301.5 224.5,301.5C 223.833,301.5 223.167,301.5 222.5,301.5C 222.384,298.14 222.051,294.807 221.5,291.5 Z"/></g>
<g><path style="opacity:1" fill="#304162" d="M 172.5,295.5 C 174.199,295.34 175.866,295.506 177.5,296C 176.269,297.183 176.269,298.349 177.5,299.5C 178.931,299.977 180.264,300.643 181.5,301.5C 180.833,302.833 180.167,304.167 179.5,305.5C 179.624,306.107 179.957,306.44 180.5,306.5C 179.195,309.053 178.195,311.72 177.5,314.5C 176.711,314.217 176.044,313.717 175.5,313C 177.502,309.887 178.502,306.387 178.5,302.5C 176.167,302.5 173.833,302.5 171.5,302.5C 171.383,300.516 172.05,298.85 173.5,297.5C 173.137,296.817 172.804,296.15 172.5,295.5 Z"/></g>
<g><path style="opacity:1" fill="#934d6e" d="M 256.5,295.5 C 256.662,297.527 256.495,299.527 256,301.5C 254.714,299.817 253.547,298.151 252.5,296.5C 252.5,295.833 252.5,295.167 252.5,294.5C 254.288,293.378 256.288,293.211 258.5,294C 257.584,294.278 256.918,294.778 256.5,295.5 Z"/></g>
<g><path style="opacity:1" fill="#697aa2" d="M 131.5,286.5 C 131.833,286.5 132.167,286.5 132.5,286.5C 133.371,289.112 134.037,291.779 134.5,294.5C 136.973,294.088 138.306,295.088 138.5,297.5C 137.662,297.842 137.328,298.508 137.5,299.5C 133.562,302.098 129.895,305.098 126.5,308.5C 125.883,308.389 125.383,308.056 125,307.5C 124.171,302.863 123.671,298.196 123.5,293.5C 124.265,293.923 125.098,294.257 126,294.5C 129.672,293.01 131.505,290.344 131.5,286.5 Z"/></g>
<g><path style="opacity:1" fill="#415171" d="M 266.5,290.5 C 267.654,296.987 267.821,303.654 267,310.5C 266,312.5 265,314.5 264,316.5C 262.989,317.337 261.822,317.67 260.5,317.5C 259.245,310.7 258.578,303.7 258.5,296.5C 260.258,296.123 261.925,295.456 263.5,294.5C 264.086,294.709 264.586,295.043 265,295.5C 265.352,293.753 265.852,292.086 266.5,290.5 Z"/></g>
<g><path style="opacity:1" fill="#b26983" d="M 147.5,291.5 C 147.369,292.239 147.536,292.906 148,293.5C 148.423,292.044 149.256,291.544 150.5,292C 148.69,294.644 146.69,297.144 144.5,299.5C 145.63,300.622 146.297,301.956 146.5,303.5C 145.542,303.047 144.708,302.381 144,301.5C 143.601,301.728 143.435,302.062 143.5,302.5C 143.167,302.5 142.833,302.5 142.5,302.5C 139.319,303.349 136.652,305.015 134.5,307.5C 133.596,306.791 133.263,305.791 133.5,304.5C 134.833,302.833 136.167,301.167 137.5,299.5C 137.328,298.508 137.662,297.842 138.5,297.5C 140.419,296.775 142.419,295.441 144.5,293.5C 145.5,292.833 146.5,292.167 147.5,291.5 Z"/></g>
<g><path style="opacity:1" fill="#62547a" d="M 151.5,289.5 C 153.343,293.64 152.343,296.973 148.5,299.5C 150.253,301.7 152.586,302.867 155.5,303C 154.944,303.383 154.611,303.883 154.5,304.5C 153.226,305.189 153.226,306.023 154.5,307C 153.552,307.483 152.552,307.649 151.5,307.5C 150.415,305.413 148.749,304.08 146.5,303.5C 146.297,301.956 145.63,300.622 144.5,299.5C 146.69,297.144 148.69,294.644 150.5,292C 149.256,291.544 148.423,292.044 148,293.5C 147.536,292.906 147.369,292.239 147.5,291.5C 148.183,289.824 149.517,289.157 151.5,289.5 Z"/></g>
<g><path style="opacity:1" fill="#201b24" d="M 184.5,289.5 C 188.5,290.004 192.166,291.337 195.5,293.5C 197.389,294.604 199.055,295.937 200.5,297.5C 200.5,298.167 200.5,298.833 200.5,299.5C 200.579,300.93 200.246,302.264 199.5,303.5C 198.743,304.773 198.077,304.773 197.5,303.5C 198.622,301.712 198.789,299.712 198,297.5C 189.876,291.504 181.376,290.837 172.5,295.5C 170.708,295.634 169.042,295.301 167.5,294.5C 166.89,293.609 166.557,292.609 166.5,291.5C 170.268,292.787 173.935,292.787 177.5,291.5C 178.791,291.737 179.791,291.404 180.5,290.5C 181.959,290.567 183.292,290.234 184.5,289.5 Z"/></g>
<g><path style="opacity:1" fill="#613021" d="M 200.5,297.5 C 203.447,298.781 205.781,300.781 207.5,303.5C 205.86,303.554 204.194,303.554 202.5,303.5C 202.771,301.62 202.104,300.287 200.5,299.5C 200.5,298.833 200.5,298.167 200.5,297.5 Z"/></g>
<g><path style="opacity:1" fill="#664567" d="M 256.5,295.5 C 257.167,295.5 257.833,295.5 258.5,295.5C 258.5,295.833 258.5,296.167 258.5,296.5C 258.578,303.7 259.245,310.7 260.5,317.5C 260.158,318.338 259.492,318.672 258.5,318.5C 257.036,317.595 255.702,317.595 254.5,318.5C 254.666,313.156 254.499,307.823 254,302.5C 251.512,298.499 248.012,297.499 243.5,299.5C 245.971,297.557 248.971,296.557 252.5,296.5C 253.547,298.151 254.714,299.817 256,301.5C 256.495,299.527 256.662,297.527 256.5,295.5 Z"/></g>
<g><path style="opacity:1" fill="#4d5e89" d="M 164.5,295.5 C 164.918,296.222 165.584,296.722 166.5,297C 163.598,300.072 160.598,302.905 157.5,305.5C 156.583,304.873 155.583,304.539 154.5,304.5C 154.611,303.883 154.944,303.383 155.5,303C 152.586,302.867 150.253,301.7 148.5,299.5C 152.343,296.973 153.343,293.64 151.5,289.5C 151.435,289.062 151.601,288.728 152,288.5C 154.929,289.188 157.763,290.188 160.5,291.5C 159.626,294.473 160.96,295.806 164.5,295.5 Z"/></g>
<g><path style="opacity:1" fill="#4c567a" d="M 171.5,302.5 C 173.833,302.5 176.167,302.5 178.5,302.5C 178.502,306.387 177.502,309.887 175.5,313C 176.044,313.717 176.711,314.217 177.5,314.5C 178.401,315.29 179.068,316.29 179.5,317.5C 178.167,317.167 176.833,316.833 175.5,316.5C 173.429,315.055 171.096,314.055 168.5,313.5C 166.847,313.34 165.514,312.674 164.5,311.5C 165.5,311.5 166.5,311.5 167.5,311.5C 168.452,308.303 169.785,305.303 171.5,302.5 Z"/></g>
<g><path style="opacity:1" fill="#a487b3" d="M 146.5,303.5 C 148.749,304.08 150.415,305.413 151.5,307.5C 149.251,306.92 147.585,305.587 146.5,303.5 Z"/></g>
<g><path style="opacity:1" fill="#6e4d6b" d="M 142.5,302.5 C 143.415,304.754 144.748,306.754 146.5,308.5C 144.264,307.611 142.264,306.278 140.5,304.5C 137.748,307.263 134.748,309.597 131.5,311.5C 132.5,310.167 133.5,308.833 134.5,307.5C 136.652,305.015 139.319,303.349 142.5,302.5 Z"/></g>
<g><path style="opacity:1" fill="#5a637f" d="M 195.5,303.5 C 194.286,308.584 192.619,313.584 190.5,318.5C 187.956,318.949 185.29,318.949 182.5,318.5C 181.791,317.596 180.791,317.263 179.5,317.5C 179.068,316.29 178.401,315.29 177.5,314.5C 178.195,311.72 179.195,309.053 180.5,306.5C 181.939,304.412 182.606,302.079 182.5,299.5C 186.757,300.983 191.09,302.316 195.5,303.5 Z"/></g>
<g><path style="opacity:1" fill="#40537b" d="M 254.5,318.5 C 248.974,318.821 243.64,318.488 238.5,317.5C 240.961,313.238 242.295,308.571 242.5,303.5C 242.167,302.833 241.833,302.167 241.5,301.5C 241.833,301.5 242.167,301.5 242.5,301.5C 243.338,301.158 243.672,300.492 243.5,299.5C 248.012,297.499 251.512,298.499 254,302.5C 254.499,307.823 254.666,313.156 254.5,318.5 Z"/></g>
<g><path style="opacity:1" fill="#a48aae" d="M 142.5,302.5 C 142.833,302.5 143.167,302.5 143.5,302.5C 145.167,304.5 146.833,306.5 148.5,308.5C 147.833,308.5 147.167,308.5 146.5,308.5C 144.748,306.754 143.415,304.754 142.5,302.5 Z"/></g>
<g><path style="opacity:1" fill="#99614b" d="M 207.5,303.5 C 210.842,305.836 214.175,308.169 217.5,310.5C 212.547,310.957 207.714,311.957 203,313.5C 202.228,313.355 201.561,313.022 201,312.5C 200.802,310.618 200.302,308.952 199.5,307.5C 199.738,305.596 200.738,304.262 202.5,303.5C 204.194,303.554 205.86,303.554 207.5,303.5 Z"/></g>
<g><path style="opacity:1" fill="#9f6579" d="M 226.5,301.5 C 228.5,301.5 230.5,301.5 232.5,301.5C 231.057,307.408 229.891,313.408 229,319.5C 227.583,318.922 226.75,317.922 226.5,316.5C 227.393,313.415 228.06,310.248 228.5,307C 228.302,304.879 227.636,303.046 226.5,301.5 Z"/></g>
<g><path style="opacity:1" fill="#4f586d" d="M 167.5,294.5 C 169.042,295.301 170.708,295.634 172.5,295.5C 172.804,296.15 173.137,296.817 173.5,297.5C 172.05,298.85 171.383,300.516 171.5,302.5C 169.785,305.303 168.452,308.303 167.5,311.5C 166.5,311.5 165.5,311.5 164.5,311.5C 160.914,310.207 157.248,309.207 153.5,308.5C 152.508,308.672 151.842,308.338 151.5,307.5C 152.552,307.649 153.552,307.483 154.5,307C 153.226,306.023 153.226,305.189 154.5,304.5C 155.583,304.539 156.583,304.873 157.5,305.5C 160.598,302.905 163.598,300.072 166.5,297C 165.584,296.722 164.918,296.222 164.5,295.5C 165.391,294.89 166.391,294.557 167.5,294.5 Z"/></g>
<g><path style="opacity:1" fill="#634363" d="M 146.5,303.5 C 147.585,305.587 149.251,306.92 151.5,307.5C 151.842,308.338 152.508,308.672 153.5,308.5C 154.6,309.558 155.934,310.392 157.5,311C 157,311.167 156.5,311.333 156,311.5C 153.535,310.349 151.035,309.349 148.5,308.5C 146.833,306.5 145.167,304.5 143.5,302.5C 143.435,302.062 143.601,301.728 144,301.5C 144.708,302.381 145.542,303.047 146.5,303.5 Z"/></g>
<g><path style="opacity:1" fill="#554f56" d="M 200.5,299.5 C 202.104,300.287 202.771,301.62 202.5,303.5C 200.738,304.262 199.738,305.596 199.5,307.5C 197.168,312.158 194.835,316.825 192.5,321.5C 191.833,321.833 191.167,322.167 190.5,322.5C 188.12,320.595 185.453,319.262 182.5,318.5C 185.29,318.949 187.956,318.949 190.5,318.5C 192.619,313.584 194.286,308.584 195.5,303.5C 196.167,303.5 196.833,303.5 197.5,303.5C 198.077,304.773 198.743,304.773 199.5,303.5C 200.246,302.264 200.579,300.93 200.5,299.5 Z"/></g>
<g><path style="opacity:1" fill="#6f5975" d="M 137.5,299.5 C 136.167,301.167 134.833,302.833 133.5,304.5C 130.806,306.527 128.473,308.861 126.5,311.5C 126.5,310.5 126.5,309.5 126.5,308.5C 129.895,305.098 133.562,302.098 137.5,299.5 Z"/></g>
<g><path style="opacity:1" fill="#86718a" d="M 148.5,308.5 C 151.035,309.349 153.535,310.349 156,311.5C 156.5,311.333 157,311.167 157.5,311C 155.934,310.392 154.6,309.558 153.5,308.5C 157.248,309.207 160.914,310.207 164.5,311.5C 165.514,312.674 166.847,313.34 168.5,313.5C 167.737,314.268 166.737,314.768 165.5,315C 168.244,315.803 170.911,316.803 173.5,318C 172.147,321.438 169.647,324.605 166,327.5C 164.77,326.725 164.437,325.725 165,324.5C 166.918,323.458 168.751,322.292 170.5,321C 169.77,317.802 167.77,316.302 164.5,316.5C 164.158,315.662 163.492,315.328 162.5,315.5C 157.373,313.914 152.707,311.58 148.5,308.5 Z"/></g>
<g><path style="opacity:1" fill="#a37591" d="M 133.5,304.5 C 133.263,305.791 133.596,306.791 134.5,307.5C 133.5,308.833 132.5,310.167 131.5,311.5C 129.259,312.3 128.259,313.966 128.5,316.5C 127.069,315.22 126.402,313.553 126.5,311.5C 128.473,308.861 130.806,306.527 133.5,304.5 Z"/></g>
<g><path style="opacity:1" fill="#88676d" d="M 224.5,301.5 C 225.167,301.5 225.833,301.5 226.5,301.5C 227.636,303.046 228.302,304.879 228.5,307C 228.06,310.248 227.393,313.415 226.5,316.5C 226.167,316.5 225.833,316.5 225.5,316.5C 225.5,315.167 225.5,313.833 225.5,312.5C 223.901,312.768 222.568,312.434 221.5,311.5C 223.179,311.715 224.179,311.048 224.5,309.5C 224.5,306.833 224.5,304.167 224.5,301.5 Z"/></g>
<g><path style="opacity:1" fill="#5e7091" d="M 237.5,303.5 C 239.167,303.5 240.833,303.5 242.5,303.5C 242.295,308.571 240.961,313.238 238.5,317.5C 237.167,317.5 235.833,317.5 234.5,317.5C 234.335,313.818 234.501,310.152 235,306.5C 236.045,305.627 236.878,304.627 237.5,303.5 Z"/></g>
<g><path style="opacity:1" fill="#5f6f95" d="M 146.5,308.5 C 147.94,310.388 149.606,312.055 151.5,313.5C 149.5,314.5 147.5,315.5 145.5,316.5C 144.821,319.873 143.154,322.54 140.5,324.5C 135.893,323.693 132.726,321.027 131,316.5C 130.82,318.488 130.986,320.488 131.5,322.5C 129.992,320.819 128.992,318.819 128.5,316.5C 128.259,313.966 129.259,312.3 131.5,311.5C 134.748,309.597 137.748,307.263 140.5,304.5C 142.264,306.278 144.264,307.611 146.5,308.5 Z"/></g>
<g><path style="opacity:1" fill="#aa776a" d="M 199.5,307.5 C 200.302,308.952 200.802,310.618 201,312.5C 201.561,313.022 202.228,313.355 203,313.5C 207.714,311.957 212.547,310.957 217.5,310.5C 219.95,310.702 222.283,310.369 224.5,309.5C 224.179,311.048 223.179,311.715 221.5,311.5C 219.585,311.216 217.919,311.549 216.5,312.5C 216.167,312.5 215.833,312.5 215.5,312.5C 207.485,313.995 200.152,316.995 193.5,321.5C 193.167,321.5 192.833,321.5 192.5,321.5C 194.835,316.825 197.168,312.158 199.5,307.5 Z"/></g>
<g><path style="opacity:1" fill="#645f72" d="M 216.5,312.5 C 217.93,312.421 219.264,312.754 220.5,313.5C 220.735,316.22 221.068,318.886 221.5,321.5C 218.595,319.244 216.928,316.244 216.5,312.5 Z"/></g>
<g><path style="opacity:1" fill="#714048" d="M 215.5,312.5 C 213.908,316.584 210.908,319.084 206.5,320C 205.748,320.671 205.414,321.504 205.5,322.5C 205.167,322.5 204.833,322.5 204.5,322.5C 203.317,322.844 202.484,322.178 202,320.5C 199.894,322.291 197.394,322.958 194.5,322.5C 194.5,321.833 194.167,321.5 193.5,321.5C 200.152,316.995 207.485,313.995 215.5,312.5 Z"/></g>
<g><path style="opacity:1" fill="#3c3546" d="M 216.5,312.5 C 217.919,311.549 219.585,311.216 221.5,311.5C 222.568,312.434 223.901,312.768 225.5,312.5C 225.5,313.833 225.5,315.167 225.5,316.5C 224.962,318.117 224.629,319.784 224.5,321.5C 223.5,321.5 222.5,321.5 221.5,321.5C 221.068,318.886 220.735,316.22 220.5,313.5C 219.264,312.754 217.93,312.421 216.5,312.5 Z"/></g>
<g><path style="opacity:1" fill="#6f536d" d="M 232.5,301.5 C 235.5,301.5 238.5,301.5 241.5,301.5C 241.833,302.167 242.167,302.833 242.5,303.5C 240.833,303.5 239.167,303.5 237.5,303.5C 235.833,303.5 234.167,303.5 232.5,303.5C 232.161,309.544 231.494,315.544 230.5,321.5C 229.883,321.389 229.383,321.056 229,320.5C 227.007,321.914 224.84,322.914 222.5,323.5C 222.167,322.833 221.833,322.167 221.5,321.5C 222.5,321.5 223.5,321.5 224.5,321.5C 224.629,319.784 224.962,318.117 225.5,316.5C 225.833,316.5 226.167,316.5 226.5,316.5C 226.75,317.922 227.583,318.922 229,319.5C 229.891,313.408 231.057,307.408 232.5,301.5 Z"/></g>
<g><path style="opacity:1" fill="#56637a" d="M 237.5,303.5 C 236.878,304.627 236.045,305.627 235,306.5C 234.501,310.152 234.335,313.818 234.5,317.5C 235.833,317.5 237.167,317.5 238.5,317.5C 243.64,318.488 248.974,318.821 254.5,318.5C 255.702,317.595 257.036,317.595 258.5,318.5C 258.5,318.833 258.5,319.167 258.5,319.5C 251.833,319.5 245.167,319.5 238.5,319.5C 238.5,321.167 238.5,322.833 238.5,324.5C 237.596,323.791 237.263,322.791 237.5,321.5C 235.09,322.438 232.756,322.438 230.5,321.5C 231.494,315.544 232.161,309.544 232.5,303.5C 234.167,303.5 235.833,303.5 237.5,303.5 Z"/></g>
<g><path style="opacity:1" fill="#977796" d="M 175.5,316.5 C 176.833,316.833 178.167,317.167 179.5,317.5C 180.791,317.263 181.791,317.596 182.5,318.5C 185.453,319.262 188.12,320.595 190.5,322.5C 189.508,322.328 188.842,322.662 188.5,323.5C 187.5,323.5 186.5,323.5 185.5,323.5C 181.244,323.357 177.578,321.857 174.5,319C 176.619,318.658 176.953,317.825 175.5,316.5 Z"/></g>
<g><path style="opacity:1" fill="#3d3954" d="M 215.5,312.5 C 215.833,312.5 216.167,312.5 216.5,312.5C 216.928,316.244 218.595,319.244 221.5,321.5C 221.833,322.167 222.167,322.833 222.5,323.5C 221.778,323.918 221.278,324.584 221,325.5C 220.28,323.944 219.113,322.944 217.5,322.5C 217.516,320.516 216.516,319.516 214.5,319.5C 212.962,319.453 211.962,320.12 211.5,321.5C 209.589,322.075 207.922,323.075 206.5,324.5C 205.662,324.158 205.328,323.492 205.5,322.5C 205.414,321.504 205.748,320.671 206.5,320C 210.908,319.084 213.908,316.584 215.5,312.5 Z"/></g>
<g><path style="opacity:1" fill="#c6c7cd" d="M 258.5,319.5 C 252.355,320.49 246.022,320.823 239.5,320.5C 239.5,321.833 239.5,323.167 239.5,324.5C 239.167,324.5 238.833,324.5 238.5,324.5C 238.5,322.833 238.5,321.167 238.5,319.5C 245.167,319.5 251.833,319.5 258.5,319.5 Z"/></g>
<g><path style="opacity:1" fill="#536177" d="M 146.5,308.5 C 147.167,308.5 147.833,308.5 148.5,308.5C 152.707,311.58 157.373,313.914 162.5,315.5C 160.951,317.405 159.118,317.739 157,316.5C 154.279,320.044 151.446,323.378 148.5,326.5C 146.143,326.663 143.81,326.497 141.5,326C 140.944,325.617 140.611,325.117 140.5,324.5C 143.154,322.54 144.821,319.873 145.5,316.5C 147.5,315.5 149.5,314.5 151.5,313.5C 149.606,312.055 147.94,310.388 146.5,308.5 Z"/></g>
<g><path style="opacity:1" fill="#5f5171" d="M 168.5,313.5 C 171.096,314.055 173.429,315.055 175.5,316.5C 176.953,317.825 176.619,318.658 174.5,319C 177.578,321.857 181.244,323.357 185.5,323.5C 181.729,324.607 178.063,323.94 174.5,321.5C 172.146,323.188 170.146,325.188 168.5,327.5C 165.485,328.213 162.485,328.546 159.5,328.5C 158.534,330.396 158.201,332.396 158.5,334.5C 157.698,333.048 157.198,331.382 157,329.5C 156.39,332.827 155.89,336.161 155.5,339.5C 155.167,339.5 154.833,339.5 154.5,339.5C 154.781,335.812 155.281,332.145 156,328.5C 160.144,325.851 163.978,322.851 167.5,319.5C 166.66,318.265 165.66,317.265 164.5,316.5C 167.77,316.302 169.77,317.802 170.5,321C 168.751,322.292 166.918,323.458 165,324.5C 164.437,325.725 164.77,326.725 166,327.5C 169.647,324.605 172.147,321.438 173.5,318C 170.911,316.803 168.244,315.803 165.5,315C 166.737,314.768 167.737,314.268 168.5,313.5 Z"/></g>
<g><path style="opacity:1" fill="#65516d" d="M 204.5,322.5 C 204.5,323.5 204.5,324.5 204.5,325.5C 202.167,325.5 199.833,325.5 197.5,325.5C 196.178,325.33 195.011,325.663 194,326.5C 193.833,326.167 193.667,325.833 193.5,325.5C 195.078,324.702 196.744,324.202 198.5,324C 196.5,323.667 194.5,323.333 192.5,323C 193.094,322.536 193.761,322.369 194.5,322.5C 197.394,322.958 199.894,322.291 202,320.5C 202.484,322.178 203.317,322.844 204.5,322.5 Z"/></g>
<g><path style="opacity:1" fill="#58678e" d="M 162.5,315.5 C 163.492,315.328 164.158,315.662 164.5,316.5C 165.66,317.265 166.66,318.265 167.5,319.5C 163.978,322.851 160.144,325.851 156,328.5C 155.281,332.145 154.781,335.812 154.5,339.5C 154.167,339.5 153.833,339.5 153.5,339.5C 153.833,335.5 154.167,331.5 154.5,327.5C 152.435,327.483 150.435,327.15 148.5,326.5C 151.446,323.378 154.279,320.044 157,316.5C 159.118,317.739 160.951,317.405 162.5,315.5 Z"/></g>
<g><path style="opacity:1" fill="#727999" d="M 185.5,323.5 C 186.5,323.5 187.5,323.5 188.5,323.5C 188.938,323.435 189.272,323.601 189.5,324C 188.376,324.249 187.376,324.749 186.5,325.5C 185.935,327.509 184.935,329.176 183.5,330.5C 181.717,331.455 179.717,332.122 177.5,332.5C 175.523,331.54 173.523,330.54 171.5,329.5C 169.38,330.872 168.38,330.205 168.5,327.5C 170.146,325.188 172.146,323.188 174.5,321.5C 178.063,323.94 181.729,324.607 185.5,323.5 Z"/></g>
<g><path style="opacity:1" fill="#2f3e56" d="M 230.5,321.5 C 230.5,322.833 230.5,324.167 230.5,325.5C 229.325,325.281 228.325,325.614 227.5,326.5C 228.582,326.749 229.915,326.915 231.5,327C 228.906,328.339 227.406,330.506 227,333.5C 226.667,332.5 226.333,331.5 226,330.5C 225.956,333.475 226.123,336.475 226.5,339.5C 226.167,339.5 225.833,339.5 225.5,339.5C 225.322,336.784 224.822,334.117 224,331.5C 222.556,333.155 220.722,333.822 218.5,333.5C 218.5,335.5 218.5,337.5 218.5,339.5C 217.5,339.5 216.5,339.5 215.5,339.5C 215.907,333.801 216.573,328.134 217.5,322.5C 219.113,322.944 220.28,323.944 221,325.5C 221.278,324.584 221.778,323.918 222.5,323.5C 224.84,322.914 227.007,321.914 229,320.5C 229.383,321.056 229.883,321.389 230.5,321.5 Z"/></g>
<g><path style="opacity:1" fill="#42587f" d="M 140.5,324.5 C 140.611,325.117 140.944,325.617 141.5,326C 143.81,326.497 146.143,326.663 148.5,326.5C 150.435,327.15 152.435,327.483 154.5,327.5C 154.167,331.5 153.833,335.5 153.5,339.5C 152.167,339.5 150.833,339.5 149.5,339.5C 148.954,335.955 148.287,332.455 147.5,329C 147.833,328.667 148.167,328.333 148.5,328C 144.964,327.362 142.964,328.862 142.5,332.5C 141.542,332.047 140.708,331.381 140,330.5C 138.647,331.685 137.48,333.019 136.5,334.5C 134.664,333.972 132.997,333.306 131.5,332.5C 132.657,329.693 132.657,327.026 131.5,324.5C 131.5,323.833 131.5,323.167 131.5,322.5C 130.986,320.488 130.82,318.488 131,316.5C 132.726,321.027 135.893,323.693 140.5,324.5 Z"/></g>
<g><path style="opacity:1" fill="#3f4870" d="M 211.5,321.5 C 212.252,323.1 213.252,324.6 214.5,326C 213.874,326.75 213.374,327.584 213,328.5C 212.667,328.167 212.333,327.833 212,327.5C 211.464,329.869 210.297,331.869 208.5,333.5C 207.571,332.45 206.905,332.45 206.5,333.5C 206.094,330.719 206.094,327.719 206.5,324.5C 207.922,323.075 209.589,322.075 211.5,321.5 Z"/></g>
<g><path style="opacity:1" fill="#394060" d="M 192.5,321.5 C 192.833,321.5 193.167,321.5 193.5,321.5C 194.167,321.5 194.5,321.833 194.5,322.5C 193.761,322.369 193.094,322.536 192.5,323C 194.5,323.333 196.5,323.667 198.5,324C 196.744,324.202 195.078,324.702 193.5,325.5C 193.667,325.833 193.833,326.167 194,326.5C 195.011,325.663 196.178,325.33 197.5,325.5C 195.5,326.349 194.167,327.849 193.5,330C 194.256,333.125 194.589,336.291 194.5,339.5C 193.5,339.5 192.5,339.5 191.5,339.5C 192.527,335.554 192.694,331.554 192,327.5C 190.576,331.297 190.076,335.297 190.5,339.5C 190.167,339.5 189.833,339.5 189.5,339.5C 189.296,336.455 189.296,333.621 189.5,331C 187.314,330.939 185.314,330.772 183.5,330.5C 184.935,329.176 185.935,327.509 186.5,325.5C 187.376,324.749 188.376,324.249 189.5,324C 189.272,323.601 188.938,323.435 188.5,323.5C 188.842,322.662 189.508,322.328 190.5,322.5C 191.167,322.167 191.833,321.833 192.5,321.5 Z"/></g>
<g><path style="opacity:1" fill="#475a7c" d="M 168.5,327.5 C 168.38,330.205 169.38,330.872 171.5,329.5C 173.523,330.54 175.523,331.54 177.5,332.5C 179.717,332.122 181.717,331.455 183.5,330.5C 185.314,330.772 187.314,330.939 189.5,331C 189.296,333.621 189.296,336.455 189.5,339.5C 183.167,339.5 176.833,339.5 170.5,339.5C 169.665,338.057 168.332,337.057 166.5,336.5C 168.981,335.14 168.648,334.14 165.5,333.5C 165.167,334.167 164.833,334.833 164.5,335.5C 162.382,334.844 160.382,334.511 158.5,334.5C 158.201,332.396 158.534,330.396 159.5,328.5C 162.485,328.546 165.485,328.213 168.5,327.5 Z"/></g>
<g><path style="opacity:1" fill="#8e9ab2" d="M 131.5,324.5 C 132.657,327.026 132.657,329.693 131.5,332.5C 131.167,332.5 130.833,332.5 130.5,332.5C 130.833,329.833 131.167,327.167 131.5,324.5 Z"/></g>
<g><path style="opacity:1" fill="#495a7e" d="M 204.5,322.5 C 204.833,322.5 205.167,322.5 205.5,322.5C 205.328,323.492 205.662,324.158 206.5,324.5C 206.094,327.719 206.094,330.719 206.5,333.5C 206.607,335.379 206.107,335.712 205,334.5C 204.506,336.134 204.34,337.801 204.5,339.5C 201.167,339.5 197.833,339.5 194.5,339.5C 194.589,336.291 194.256,333.125 193.5,330C 194.167,327.849 195.5,326.349 197.5,325.5C 199.833,325.5 202.167,325.5 204.5,325.5C 204.5,324.5 204.5,323.5 204.5,322.5 Z"/></g>
<g><path style="opacity:1" fill="#324875" d="M 149.5,339.5 C 147.167,339.5 144.833,339.5 142.5,339.5C 142.5,337.167 142.5,334.833 142.5,332.5C 142.964,328.862 144.964,327.362 148.5,328C 148.167,328.333 147.833,328.667 147.5,329C 148.287,332.455 148.954,335.955 149.5,339.5 Z"/></g>
<g><path style="opacity:1" fill="#40506f" d="M 217.5,322.5 C 216.573,328.134 215.907,333.801 215.5,339.5C 211.833,339.5 208.167,339.5 204.5,339.5C 204.34,337.801 204.506,336.134 205,334.5C 206.107,335.712 206.607,335.379 206.5,333.5C 206.905,332.45 207.571,332.45 208.5,333.5C 210.297,331.869 211.464,329.869 212,327.5C 212.333,327.833 212.667,328.167 213,328.5C 213.374,327.584 213.874,326.75 214.5,326C 213.252,324.6 212.252,323.1 211.5,321.5C 211.962,320.12 212.962,319.453 214.5,319.5C 216.516,319.516 217.516,320.516 217.5,322.5 Z"/></g>
<g><path style="opacity:1" fill="#434d6e" d="M 230.5,321.5 C 232.756,322.438 235.09,322.438 237.5,321.5C 237.263,322.791 237.596,323.791 238.5,324.5C 238.833,324.5 239.167,324.5 239.5,324.5C 239.205,326.735 239.539,328.735 240.5,330.5C 240.261,332.467 240.594,334.301 241.5,336C 238.294,336.927 237.961,338.093 240.5,339.5C 235.833,339.5 231.167,339.5 226.5,339.5C 226.123,336.475 225.956,333.475 226,330.5C 226.333,331.5 226.667,332.5 227,333.5C 227.406,330.506 228.906,328.339 231.5,327C 229.915,326.915 228.582,326.749 227.5,326.5C 228.325,325.614 229.325,325.281 230.5,325.5C 230.5,324.167 230.5,322.833 230.5,321.5 Z"/></g>
<g><path style="opacity:1" fill="#655c88" d="M 191.5,339.5 C 191.167,339.5 190.833,339.5 190.5,339.5C 190.076,335.297 190.576,331.297 192,327.5C 192.694,331.554 192.527,335.554 191.5,339.5 Z"/></g>
<g><path style="opacity:1" fill="#405173" d="M 225.5,339.5 C 223.167,339.5 220.833,339.5 218.5,339.5C 218.5,337.5 218.5,335.5 218.5,333.5C 220.722,333.822 222.556,333.155 224,331.5C 224.822,334.117 225.322,336.784 225.5,339.5 Z"/></g>
<g><path style="opacity:1" fill="#4d6697" d="M 142.5,332.5 C 142.5,334.833 142.5,337.167 142.5,339.5C 138.5,339.5 134.5,339.5 130.5,339.5C 130.5,337.167 130.5,334.833 130.5,332.5C 130.833,332.5 131.167,332.5 131.5,332.5C 132.997,333.306 134.664,333.972 136.5,334.5C 137.48,333.019 138.647,331.685 140,330.5C 140.708,331.381 141.542,332.047 142.5,332.5 Z"/></g>
<g><path style="opacity:1" fill="#5c7094" d="M 158.5,334.5 C 160.382,334.511 162.382,334.844 164.5,335.5C 164.833,334.833 165.167,334.167 165.5,333.5C 168.648,334.14 168.981,335.14 166.5,336.5C 168.332,337.057 169.665,338.057 170.5,339.5C 165.5,339.5 160.5,339.5 155.5,339.5C 155.89,336.161 156.39,332.827 157,329.5C 157.198,331.382 157.698,333.048 158.5,334.5 Z"/></g>
<g><path style="opacity:1" fill="#887485" d="M 240.5,330.5 C 241.946,333.254 242.946,336.254 243.5,339.5C 242.5,339.5 241.5,339.5 240.5,339.5C 237.961,338.093 238.294,336.927 241.5,336C 240.594,334.301 240.261,332.467 240.5,330.5 Z"/></g>
</svg>
